<svg width="1200" height="674" viewBox="0 0 1200 674" fill="none" xmlns="http://www.w3.org/2000/svg">
<path d="M0 50C0 22.3858 22.3858 0 50 0H1150C1177.61 0 1200 22.3858 1200 50V623.264C1200 650.878 1177.61 673.264 1150 673.264H50C22.3858 673.264 0 650.878 0 623.264V50Z" fill="#F5F5F5"/>
<mask id="mask0_2_2361" style="mask-type:alpha" maskUnits="userSpaceOnUse" x="0" y="0" width="1200" height="674">
<path d="M0 50C0 22.3858 22.3858 0 50 0H1150C1177.61 0 1200 22.3858 1200 50V623.264C1200 650.878 1177.61 673.264 1150 673.264H50C22.3858 673.264 0 650.878 0 623.264V50Z" fill="#EFF1F5"/>
</mask>
<g mask="url(#mask0_2_2361)">
<g filter="url(#filter0_d_2_2361)">
<g clip-path="url(#clip0_2_2361)">
<rect width="260.701" height="486.42" rx="30" transform="matrix(0.905409 0.42454 -0.445939 0.895063 872.93 -459.838)" fill="white"/>
<path d="M638.182 -55.9227C643.231 -66.0564 655.634 -70.375 665.885 -65.5684L918.494 52.8782C928.745 57.6847 932.962 69.7963 927.913 79.93C922.865 90.0638 910.462 94.3823 900.211 89.5758L647.602 -28.8708C637.351 -33.6774 633.134 -45.7889 638.182 -55.9227Z" fill="white"/>
<path d="M743.433 -7.12302C739.985 -0.202397 731.514 2.74685 724.514 -0.535684C717.513 -3.81822 714.633 -12.0895 718.081 -19.0101C721.529 -25.9307 729.999 -28.88 737 -25.5975C744.001 -22.3149 746.881 -14.0436 743.433 -7.12302Z" fill="#EFEFF3"/>
<path d="M849.366 42.5469C845.918 49.4675 837.448 52.4168 830.447 49.1342C823.447 45.8517 820.567 37.5804 824.015 30.6598C827.463 23.7392 835.933 20.7899 842.934 24.0725C849.934 27.355 852.814 35.6263 849.366 42.5469Z" fill="#727276" fill-opacity="0.64"/>
<path fill-rule="evenodd" clip-rule="evenodd" d="M937.055 61.5818L647.324 -74.271L647.77 -75.166L937.501 60.6867L937.055 61.5818Z" fill="#E9E9E9"/>
<path d="M662.913 2.04862C667.223 -6.60215 677.811 -10.2887 686.562 -6.18554L912.914 99.9494C921.665 104.053 925.265 114.392 920.955 123.042C916.645 131.693 906.057 135.38 897.306 131.277L670.954 25.1417C662.203 21.0385 658.603 10.6994 662.913 2.04862Z" fill="#727276" fill-opacity="0.64"/>
</g>
</g>
<g clip-path="url(#clip1_2_2361)">
<rect width="260.701" height="486.42" rx="30" transform="matrix(0.905409 0.42454 -0.445939 0.895063 641.926 3.82031)" fill="white"/>
<path d="M372.174 477.998L661.905 613.851L643.621 650.548L353.89 514.696L372.174 477.998Z" fill="white"/>
<path d="M468.282 545.147C464.834 552.067 456.364 555.016 449.363 551.734C442.363 548.451 439.483 540.18 442.931 533.259C446.379 526.339 454.849 523.39 461.85 526.672C468.85 529.955 471.73 538.226 468.282 545.147Z" fill="#EFEFF3"/>
<path fill-rule="evenodd" clip-rule="evenodd" d="M661.904 613.851L372.173 477.999L372.619 477.104L662.35 612.956L661.904 613.851Z" fill="#E9E9E9"/>
<path d="M611.555 19.9429C615.865 11.2921 626.453 7.60557 635.204 11.7087C643.955 15.8119 647.555 26.151 643.245 34.8018C638.935 43.4526 628.347 47.1391 619.596 43.036C610.845 38.9328 607.245 28.5937 611.555 19.9429Z" fill="white"/>
<path fill-rule="evenodd" clip-rule="evenodd" d="M625.353 33.7342L621.991 24.0766C621.784 23.484 622.109 22.8323 622.716 22.6209L632.606 19.1774C633.213 18.9661 633.872 19.2752 634.078 19.8678C634.285 20.4605 633.96 21.1122 633.353 21.3235L624.562 24.3845L627.551 32.969C627.757 33.5616 627.433 34.2133 626.826 34.4247C626.219 34.636 625.56 34.3269 625.353 33.7342Z" fill="#727276" fill-opacity="0.64"/>
<path d="M652.968 37.7038C654.199 35.2322 657.224 34.1789 659.724 35.3512L768.373 86.296C770.874 87.4683 771.902 90.4223 770.671 92.894C769.439 95.3656 766.414 96.4189 763.914 95.2466L655.265 44.3018C652.765 43.1295 651.736 40.1755 652.968 37.7038Z" fill="#EFEFF3"/>
</g>
<path d="M621.061 78.5746C628.45 63.7447 646.6 57.4248 661.602 64.4588L818.239 137.905C833.241 144.939 839.412 162.663 832.023 177.493L812.801 216.074C805.413 230.904 787.262 237.224 772.261 230.19L615.623 156.744C600.622 149.71 594.451 131.986 601.839 117.156L621.061 78.5746Z" fill="#EFEFF3"/>
<path d="M642.509 75.7055C643.533 73.6504 646.049 72.7746 648.127 73.7494L736.491 115.182C738.57 116.157 739.425 118.613 738.401 120.669C737.377 122.724 734.862 123.599 732.783 122.625L644.42 81.1917C642.341 80.2169 641.485 77.7607 642.509 75.7055Z" fill="white"/>
<path d="M622.486 115.893C623.51 113.838 626.025 112.962 628.104 113.937L709.091 151.911C711.17 152.886 712.025 155.342 711.001 157.397C709.978 159.452 707.462 160.328 705.383 159.354L624.396 121.379C622.317 120.404 621.462 117.948 622.486 115.893Z" fill="white"/>
<path d="M614.33 132.266C615.354 130.211 617.869 129.335 619.948 130.31L735.604 184.54C737.682 185.515 738.538 187.971 737.514 190.026C736.49 192.081 733.975 192.957 731.896 191.982L616.24 137.752C614.161 136.777 613.306 134.321 614.33 132.266Z" fill="white"/>
<path d="M775.914 187.834C776.938 185.779 779.453 184.903 781.532 185.878L799.82 194.454C801.899 195.428 802.755 197.885 801.731 199.94C800.707 201.995 798.191 202.871 796.113 201.896L777.824 193.321C775.745 192.346 774.89 189.889 775.914 187.834Z" fill="white"/>
<path d="M767.757 204.208C768.781 202.152 771.297 201.277 773.376 202.251L791.664 210.827C793.743 211.802 794.598 214.258 793.574 216.313C792.55 218.368 790.035 219.244 787.956 218.269L769.668 209.694C767.589 208.719 766.733 206.263 767.757 204.208Z" fill="white"/>
<path d="M632.128 96.5434C633.152 94.4883 635.668 93.6125 637.747 94.5873L809.462 175.103C811.541 176.078 812.396 178.534 811.372 180.59C810.349 182.645 807.833 183.521 805.754 182.546L634.039 102.03C631.96 101.055 631.105 98.5986 632.128 96.5434Z" fill="#D3D3DF"/>
<path d="M632.128 96.5434C633.152 94.4883 635.668 93.6125 637.747 94.5873L713.57 130.14C715.649 131.115 716.505 133.572 715.481 135.627C714.457 137.682 711.941 138.558 709.862 137.583L634.039 102.03C631.96 101.055 631.105 98.5986 632.128 96.5434Z" fill="#B9B9C9"/>
<path d="M765.693 133.466C767.945 128.945 773.479 127.018 778.053 129.162L817.55 147.682C822.124 149.827 824.005 155.231 821.753 159.752C819.5 164.273 813.966 166.2 809.393 164.056L769.895 145.535C765.322 143.391 763.44 137.987 765.693 133.466Z" fill="#727276" fill-opacity="0.64"/>
<path d="M570.634 179.791C578.022 164.961 596.173 158.642 611.174 165.676L767.812 239.122C782.813 246.156 788.984 263.88 781.596 278.71L762.374 317.291C754.985 332.121 736.835 338.441 721.833 331.407L565.196 257.961C550.194 250.927 544.023 233.203 551.412 218.373L570.634 179.791Z" fill="#EFEFF3"/>
<path d="M592.082 176.922C593.105 174.867 595.621 173.991 597.7 174.966L686.063 216.399C688.142 217.374 688.997 219.83 687.973 221.885C686.95 223.94 684.434 224.816 682.355 223.842L593.992 182.409C591.913 181.434 591.058 178.977 592.082 176.922Z" fill="white"/>
<path d="M572.058 217.11C573.082 215.055 575.597 214.179 577.676 215.154L658.663 253.128C660.742 254.103 661.598 256.559 660.574 258.614C659.55 260.669 657.034 261.545 654.956 260.57L573.968 222.596C571.889 221.621 571.034 219.165 572.058 217.11Z" fill="white"/>
<path d="M563.902 233.483C564.926 231.428 567.441 230.552 569.52 231.527L685.176 285.757C687.255 286.732 688.11 289.188 687.086 291.243C686.062 293.298 683.547 294.174 681.468 293.199L565.812 238.969C563.733 237.994 562.878 235.538 563.902 233.483Z" fill="white"/>
<path d="M725.486 289.051C726.51 286.996 729.025 286.12 731.104 287.095L749.393 295.67C751.472 296.645 752.327 299.102 751.303 301.157C750.279 303.212 747.764 304.088 745.685 303.113L727.396 294.537C725.317 293.563 724.462 291.106 725.486 289.051Z" fill="white"/>
<path d="M717.328 305.424C718.352 303.369 720.867 302.493 722.946 303.468L741.234 312.044C743.313 313.018 744.169 315.475 743.145 317.53C742.121 319.585 739.605 320.461 737.527 319.486L719.238 310.91C717.159 309.936 716.304 307.479 717.328 305.424Z" fill="white"/>
<path d="M581.699 197.76C582.723 195.705 585.238 194.829 587.317 195.804L759.033 276.32C761.111 277.295 761.967 279.751 760.943 281.806C759.919 283.862 757.404 284.737 755.325 283.763L583.609 203.246C581.53 202.272 580.675 199.815 581.699 197.76Z" fill="#D3D3DF"/>
<path d="M581.699 197.76C582.723 195.705 585.238 194.829 587.317 195.804L663.141 231.357C665.22 232.332 666.075 234.788 665.051 236.843C664.027 238.899 661.512 239.774 659.433 238.8L583.609 203.246C581.53 202.272 580.675 199.815 581.699 197.76Z" fill="#B9B9C9"/>
<path d="M715.265 234.683C717.518 230.161 723.051 228.235 727.625 230.379L767.122 248.899C771.696 251.044 773.578 256.447 771.325 260.969C769.072 265.49 763.539 267.417 758.965 265.272L719.468 246.752C714.894 244.608 713.012 239.204 715.265 234.683Z" fill="#727276" fill-opacity="0.64"/>
<path d="M520.204 281.006C527.592 266.176 545.743 259.856 560.744 266.89L717.382 340.337C732.383 347.371 738.555 365.095 731.166 379.925L711.944 418.506C704.555 433.336 686.405 439.656 671.404 432.622L514.766 359.176C499.765 352.142 493.593 334.417 500.982 319.587L520.204 281.006Z" fill="#EFEFF3"/>
<path d="M541.652 278.137C542.676 276.082 545.191 275.206 547.27 276.181L635.634 317.614C637.712 318.589 638.568 321.045 637.544 323.1C636.52 325.155 634.005 326.031 631.926 325.056L543.562 283.623C541.483 282.649 540.628 280.192 541.652 278.137Z" fill="white"/>
<path d="M521.628 318.325C522.652 316.27 525.168 315.394 527.247 316.369L608.234 354.343C610.313 355.318 611.168 357.774 610.144 359.829C609.12 361.884 606.605 362.76 604.526 361.785L523.539 323.811C521.46 322.836 520.605 320.38 521.628 318.325Z" fill="white"/>
<path d="M513.472 334.698C514.496 332.643 517.011 331.767 519.09 332.742L634.746 386.972C636.825 387.946 637.68 390.403 636.656 392.458C635.632 394.513 633.117 395.389 631.038 394.414L515.382 340.184C513.304 339.209 512.448 336.753 513.472 334.698Z" fill="white"/>
<path d="M675.056 390.266C676.08 388.211 678.595 387.335 680.674 388.31L698.963 396.885C701.042 397.86 701.897 400.316 700.873 402.372C699.849 404.427 697.334 405.302 695.255 404.328L676.966 395.752C674.888 394.777 674.032 392.321 675.056 390.266Z" fill="white"/>
<path d="M666.9 406.639C667.924 404.584 670.439 403.708 672.518 404.683L690.807 413.258C692.886 414.233 693.741 416.689 692.717 418.745C691.693 420.8 689.178 421.676 687.099 420.701L668.81 412.125C666.731 411.151 665.876 408.694 666.9 406.639Z" fill="white"/>
<path d="M531.271 298.975C532.295 296.92 534.81 296.044 536.889 297.019L708.605 377.535C710.684 378.51 711.539 380.966 710.515 383.021C709.491 385.076 706.976 385.952 704.897 384.977L533.181 304.461C531.102 303.486 530.247 301.03 531.271 298.975Z" fill="#D3D3DF"/>
<path d="M531.271 298.975C532.295 296.92 534.81 296.044 536.889 297.019L612.713 332.572C614.792 333.547 615.647 336.003 614.623 338.058C613.599 340.113 611.084 340.989 609.005 340.014L533.181 304.461C531.102 303.486 530.247 301.03 531.271 298.975Z" fill="#B9B9C9"/>
<path d="M664.835 335.898C667.088 331.376 672.622 329.449 677.195 331.594L716.693 350.114C721.266 352.259 723.148 357.662 720.895 362.184C718.643 366.705 713.109 368.632 708.535 366.487L669.038 347.967C664.464 345.823 662.583 340.419 664.835 335.898Z" fill="#727276" fill-opacity="0.64"/>
<g filter="url(#filter1_d_2_2361)">
<g clip-path="url(#clip2_2_2361)">
<rect width="260.701" height="486.42" rx="30" transform="matrix(0.905409 0.42454 -0.445939 0.895063 410.922 467.478)" fill="white"/>
<path d="M388.462 485.655C389.693 483.183 392.718 482.13 395.218 483.302L503.868 534.247C506.368 535.419 507.396 538.373 506.165 540.845C504.933 543.317 501.908 544.37 499.408 543.198L390.759 492.253C388.259 491.08 387.23 488.126 388.462 485.655Z" fill="#EFEFF3"/>
<path d="M361.706 539.359C369.094 524.53 387.245 518.21 402.246 525.244L606.869 621.19C621.87 628.224 628.041 645.948 620.653 660.778L618.869 664.358C611.481 679.188 593.33 685.508 578.329 678.474L373.706 582.528C358.705 575.494 352.534 557.77 359.922 542.94L361.706 539.359Z" fill="#EFEFF3"/>
<path d="M385.194 541.54C386.426 539.068 389.451 538.015 391.951 539.187L500.6 590.132C503.1 591.304 504.129 594.258 502.897 596.73C501.666 599.201 498.641 600.255 496.141 599.082L387.491 548.138C384.991 546.965 383.963 544.011 385.194 541.54Z" fill="white"/>
<path d="M332.944 597.091C338.239 586.463 351.247 581.934 361.998 586.975L582.012 690.138C592.763 695.179 597.186 707.882 591.891 718.51C586.595 729.138 573.588 733.667 562.837 728.626L342.822 625.463C332.071 620.422 327.648 607.719 332.944 597.091Z" fill="#727276" fill-opacity="0.64"/>
<path d="M352.639 606.879C353.871 604.408 356.896 603.354 359.396 604.527L447.221 645.707C449.721 646.879 450.75 649.833 449.518 652.305C448.287 654.777 445.262 655.83 442.762 654.658L354.937 613.477C352.437 612.305 351.408 609.351 352.639 606.879Z" fill="#4D4B5A" fill-opacity="0.51"/>
<path d="M457.667 656.125C458.898 653.654 461.923 652.601 464.424 653.773L484.343 663.113C486.843 664.285 487.871 667.239 486.64 669.711C485.408 672.182 482.383 673.236 479.883 672.063L459.964 662.723C457.464 661.551 456.435 658.597 457.667 656.125Z" fill="#4D4B5A" fill-opacity="0.51"/>
<path d="M305.964 651.242C313.352 636.412 331.503 630.092 346.504 637.126L551.127 733.072C566.128 740.106 572.3 757.831 564.911 772.661L549.749 803.093C542.36 817.923 524.21 824.242 509.209 817.208L304.586 721.262C289.585 714.228 283.413 696.504 290.802 681.674L305.964 651.242Z" fill="#727276" fill-opacity="0.64"/>
<path d="M329.45 653.422C330.682 650.951 333.707 649.897 336.207 651.07L483.789 720.27C486.289 721.442 487.317 724.396 486.086 726.868C484.855 729.339 481.83 730.393 479.329 729.22L331.748 660.02C329.247 658.848 328.219 655.894 329.45 653.422Z" fill="#4D4B5A" fill-opacity="0.51"/>
<path d="M318.302 675.797C319.533 673.326 322.558 672.272 325.059 673.445L412.883 714.625C415.383 715.797 416.412 718.751 415.181 721.223C413.949 723.695 410.924 724.748 408.424 723.576L320.599 682.395C318.099 681.223 317.07 678.269 318.302 675.797Z" fill="#4D4B5A" fill-opacity="0.51"/>
<path d="M376.72 558.545C377.951 556.074 380.976 555.02 383.476 556.193L583.572 650.016C586.072 651.188 587.101 654.142 585.869 656.614C584.638 659.086 581.613 660.139 579.112 658.967L379.017 565.143C376.517 563.971 375.488 561.017 376.72 558.545Z" fill="white"/>
</g>
</g>
<g filter="url(#filter2_d_2_2361)">
<g clip-path="url(#clip3_2_2361)">
<rect width="260.701" height="486.42" rx="30" transform="matrix(0.905409 0.42454 -0.445939 0.895063 1392.93 -208)" fill="white"/>
<path d="M1158.18 195.915C1163.23 185.781 1175.63 181.463 1185.89 186.269L1438.49 304.716C1448.75 309.523 1452.96 321.634 1447.91 331.768C1442.86 341.902 1430.46 346.22 1420.21 341.414L1167.6 222.967C1157.35 218.16 1153.13 206.049 1158.18 195.915Z" fill="white"/>
<path fill-rule="evenodd" clip-rule="evenodd" d="M1457.05 313.42L1167.32 177.567L1167.77 176.672L1457.5 312.525L1457.05 313.42Z" fill="#E9E9E9"/>
<path d="M1182.91 253.886C1187.22 245.236 1197.81 241.549 1206.56 245.652L1432.91 351.787C1441.66 355.89 1445.26 366.229 1440.95 374.88C1436.64 383.531 1426.06 387.218 1417.31 383.114L1190.95 276.979C1182.2 272.876 1178.6 262.537 1182.91 253.886Z" fill="#727276" fill-opacity="0.64"/>
</g>
</g>
<g clip-path="url(#clip4_2_2361)">
<rect width="260.701" height="486.42" rx="30" transform="matrix(0.905409 0.42454 -0.445939 0.895063 1161.93 255.658)" fill="white"/>
<path d="M1131.56 271.781C1135.87 263.13 1146.45 259.443 1155.2 263.547C1163.95 267.65 1167.55 277.989 1163.24 286.64C1158.93 295.29 1148.35 298.977 1139.6 294.874C1130.85 290.771 1127.25 280.431 1131.56 271.781Z" fill="white"/>
<path fill-rule="evenodd" clip-rule="evenodd" d="M1145.35 285.572L1141.99 275.914C1141.78 275.322 1142.11 274.67 1142.72 274.459L1152.61 271.015C1153.21 270.804 1153.87 271.113 1154.08 271.706C1154.28 272.298 1153.96 272.95 1153.35 273.161L1144.56 276.222L1147.55 284.807C1147.76 285.399 1147.43 286.051 1146.83 286.262C1146.22 286.474 1145.56 286.165 1145.35 285.572Z" fill="#727276" fill-opacity="0.64"/>
<path d="M1172.97 289.542C1174.2 287.07 1177.22 286.017 1179.72 287.189L1288.37 338.134C1290.87 339.306 1291.9 342.26 1290.67 344.732C1289.44 347.203 1286.41 348.257 1283.91 347.084L1175.26 296.14C1172.76 294.967 1171.74 292.013 1172.97 289.542Z" fill="#EFEFF3"/>
</g>
<path d="M1141.06 330.412C1148.45 315.582 1166.6 309.263 1181.6 316.297L1338.24 389.743C1353.24 396.777 1359.41 414.501 1352.02 429.331L1332.8 467.912C1325.41 482.742 1307.26 489.062 1292.26 482.028L1135.62 408.582C1120.62 401.548 1114.45 383.823 1121.84 368.994L1141.06 330.412Z" fill="#EFEFF3"/>
<path d="M1162.51 327.543C1163.53 325.488 1166.05 324.612 1168.13 325.587L1256.49 367.02C1258.57 367.995 1259.43 370.451 1258.4 372.506C1257.38 374.561 1254.86 375.437 1252.78 374.462L1164.42 333.029C1162.34 332.055 1161.49 329.598 1162.51 327.543Z" fill="white"/>
<path d="M1142.49 367.731C1143.51 365.676 1146.03 364.8 1148.1 365.775L1229.09 403.749C1231.17 404.724 1232.03 407.18 1231 409.235C1229.98 411.29 1227.46 412.166 1225.38 411.191L1144.4 373.217C1142.32 372.242 1141.46 369.786 1142.49 367.731Z" fill="white"/>
<path d="M1134.33 384.104C1135.35 382.049 1137.87 381.173 1139.95 382.148L1255.6 436.378C1257.68 437.353 1258.54 439.809 1257.51 441.864C1256.49 443.919 1253.97 444.795 1251.9 443.82L1136.24 389.59C1134.16 388.615 1133.31 386.159 1134.33 384.104Z" fill="white"/>
<path d="M1152.13 348.381C1153.15 346.326 1155.67 345.45 1157.75 346.425L1329.46 426.941C1331.54 427.916 1332.4 430.372 1331.37 432.427C1330.35 434.483 1327.83 435.358 1325.75 434.384L1154.04 353.867C1151.96 352.893 1151.1 350.436 1152.13 348.381Z" fill="#D3D3DF"/>
<path d="M1152.13 348.381C1153.15 346.326 1155.67 345.45 1157.75 346.425L1233.57 381.978C1235.65 382.953 1236.5 385.409 1235.48 387.464C1234.46 389.52 1231.94 390.395 1229.86 389.421L1154.04 353.867C1151.96 352.893 1151.1 350.436 1152.13 348.381Z" fill="#B9B9C9"/>
<path d="M1090.63 431.629C1098.02 416.799 1116.17 410.479 1131.17 417.513L1287.81 490.96C1302.81 497.994 1308.98 515.718 1301.6 530.548L1282.37 569.129C1274.99 583.959 1256.83 590.279 1241.83 583.245L1085.2 509.798C1070.19 502.764 1064.02 485.04 1071.41 470.21L1090.63 431.629Z" fill="#EFEFF3"/>
<path d="M1112.08 428.76C1113.11 426.705 1115.62 425.829 1117.7 426.804L1206.06 468.237C1208.14 469.212 1209 471.668 1207.97 473.723C1206.95 475.778 1204.43 476.654 1202.36 475.679L1113.99 434.246C1111.91 433.272 1111.06 430.815 1112.08 428.76Z" fill="white"/>
<path d="M1092.06 468.948C1093.08 466.892 1095.6 466.017 1097.68 466.991L1178.66 504.966C1180.74 505.941 1181.6 508.397 1180.57 510.452C1179.55 512.507 1177.03 513.383 1174.96 512.408L1093.97 474.434C1091.89 473.459 1091.03 471.003 1092.06 468.948Z" fill="white"/>
<path d="M1083.9 485.321C1084.93 483.266 1087.44 482.39 1089.52 483.364L1205.18 537.595C1207.25 538.569 1208.11 541.026 1207.09 543.081C1206.06 545.136 1203.55 546.012 1201.47 545.037L1085.81 490.807C1083.73 489.832 1082.88 487.376 1083.9 485.321Z" fill="white"/>
<path d="M1101.7 449.598C1102.72 447.543 1105.24 446.667 1107.32 447.642L1279.03 528.158C1281.11 529.133 1281.97 531.589 1280.94 533.644C1279.92 535.699 1277.4 536.575 1275.32 535.6L1103.61 455.084C1101.53 454.109 1100.67 451.653 1101.7 449.598Z" fill="#D3D3DF"/>
<path d="M1101.7 449.598C1102.72 447.543 1105.24 446.667 1107.32 447.642L1183.14 483.195C1185.22 484.17 1186.07 486.626 1185.05 488.681C1184.03 490.736 1181.51 491.612 1179.43 490.637L1103.61 455.084C1101.53 454.109 1100.67 451.653 1101.7 449.598Z" fill="#B9B9C9"/>
<path d="M1040.2 532.844C1047.59 518.014 1065.74 511.694 1080.74 518.728L1237.38 592.174C1252.38 599.208 1258.55 616.933 1251.17 631.763L1231.94 670.344C1224.56 685.174 1206.4 691.494 1191.4 684.46L1034.77 611.013C1019.76 603.979 1013.59 586.255 1020.98 571.425L1040.2 532.844Z" fill="#EFEFF3"/>
<path d="M1061.65 529.975C1062.68 527.92 1065.19 527.044 1067.27 528.019L1155.63 569.452C1157.71 570.427 1158.57 572.883 1157.54 574.938C1156.52 576.993 1154 577.869 1151.93 576.894L1063.56 535.461C1061.48 534.486 1060.63 532.03 1061.65 529.975Z" fill="white"/>
<path d="M1041.63 570.162C1042.65 568.107 1045.17 567.232 1047.25 568.206L1128.23 606.181C1130.31 607.155 1131.17 609.612 1130.14 611.667C1129.12 613.722 1126.6 614.598 1124.53 613.623L1043.54 575.649C1041.46 574.674 1040.6 572.218 1041.63 570.162Z" fill="white"/>
<path d="M1033.47 586.536C1034.5 584.48 1037.01 583.605 1039.09 584.579L1154.75 638.81C1156.83 639.784 1157.68 642.241 1156.66 644.296C1155.63 646.351 1153.12 647.227 1151.04 646.252L1035.38 592.022C1033.3 591.047 1032.45 588.591 1033.47 586.536Z" fill="white"/>
<path d="M1195.06 642.104C1196.08 640.049 1198.6 639.173 1200.67 640.148L1218.96 648.723C1221.04 649.698 1221.9 652.154 1220.87 654.209C1219.85 656.264 1217.33 657.14 1215.26 656.165L1196.97 647.59C1194.89 646.615 1194.03 644.159 1195.06 642.104Z" fill="white"/>
<path d="M1186.9 658.477C1187.92 656.422 1190.44 655.546 1192.52 656.521L1210.81 665.096C1212.89 666.071 1213.74 668.527 1212.72 670.582C1211.69 672.637 1209.18 673.513 1207.1 672.539L1188.81 663.963C1186.73 662.988 1185.88 660.532 1186.9 658.477Z" fill="white"/>
<path d="M1051.27 550.813C1052.29 548.758 1054.81 547.882 1056.89 548.857L1228.6 629.373C1230.68 630.348 1231.54 632.804 1230.51 634.859C1229.49 636.914 1226.98 637.79 1224.9 636.815L1053.18 556.299C1051.1 555.324 1050.25 552.868 1051.27 550.813Z" fill="#D3D3DF"/>
<path d="M1051.27 550.813C1052.29 548.758 1054.81 547.882 1056.89 548.857L1132.71 584.41C1134.79 585.385 1135.65 587.841 1134.62 589.896C1133.6 591.951 1131.08 592.827 1129.01 591.852L1053.18 556.299C1051.1 555.324 1050.25 552.868 1051.27 550.813Z" fill="#B9B9C9"/>
<path d="M1184.84 587.735C1187.09 583.214 1192.62 581.287 1197.2 583.432L1236.69 601.952C1241.27 604.096 1243.15 609.5 1240.9 614.021C1238.64 618.543 1233.11 620.469 1228.54 618.325L1189.04 599.805C1184.46 597.66 1182.58 592.257 1184.84 587.735Z" fill="#727276" fill-opacity="0.64"/>
<g clip-path="url(#clip5_2_2361)">
<rect width="260.701" height="486.42" rx="30" transform="matrix(0.905409 0.42454 -0.445939 0.895063 104.926 -229.342)" fill="white"/>
<path d="M-164.826 244.836L124.905 380.689L106.621 417.386L-183.11 281.534L-164.826 244.836Z" fill="white"/>
<path fill-rule="evenodd" clip-rule="evenodd" d="M124.904 380.689L-164.827 244.836L-164.381 243.941L125.35 379.794L124.904 380.689Z" fill="#E9E9E9"/>
</g>
<path d="M84.0613 -154.588C91.4498 -169.417 109.6 -175.737 124.602 -168.703L281.239 -95.2571C296.241 -88.2231 302.412 -70.4989 295.023 -55.669L275.801 -17.0877C268.413 -2.25782 250.262 4.06199 235.261 -2.97201L78.6234 -76.4182C63.6221 -83.4522 57.4507 -101.176 64.8393 -116.006L84.0613 -154.588Z" fill="#EFEFF3"/>
<path d="M33.6335 -53.3708C41.0221 -68.2006 59.1727 -74.5205 74.174 -67.4865L230.812 5.95972C245.813 12.9937 251.984 30.7179 244.596 45.5478L225.374 84.1291C217.985 98.959 199.835 105.279 184.833 98.2448L28.1957 24.7986C13.1944 17.7646 7.02301 0.0404087 14.4116 -14.7895L33.6335 -53.3708Z" fill="#EFEFF3"/>
<path d="M35.0581 -16.0523C36.0821 -18.1074 38.5974 -18.9832 40.6763 -18.0084L121.663 19.9659C123.742 20.9406 124.598 23.3969 123.574 25.452C122.55 27.5072 120.034 28.383 117.956 27.4082L36.9684 -10.5661C34.8895 -11.5409 34.0342 -13.9971 35.0581 -16.0523Z" fill="white"/>
<path d="M26.9019 0.320781C27.9258 -1.73436 30.4411 -2.61017 32.52 -1.63539L148.176 52.5948C150.255 53.5695 151.11 56.0258 150.086 58.0809C149.062 60.1361 146.547 61.0119 144.468 60.0371L28.8121 5.80695C26.7332 4.83217 25.878 2.37593 26.9019 0.320781Z" fill="white"/>
<path d="M188.486 55.8891C189.51 53.834 192.025 52.9582 194.104 53.933L212.393 62.5084C214.472 63.4832 215.327 65.9394 214.303 67.9946C213.279 70.0497 210.764 70.9255 208.685 69.9507L190.396 61.3753C188.317 60.4005 187.462 57.9443 188.486 55.8891Z" fill="white"/>
<path d="M180.328 72.2622C181.352 70.207 183.867 69.3312 185.946 70.306L204.235 78.8814C206.313 79.8561 207.169 82.3124 206.145 84.3675C205.121 86.4227 202.605 87.2985 200.527 86.3237L182.238 77.7483C180.159 76.7736 179.304 74.3173 180.328 72.2622Z" fill="white"/>
<path d="M44.6988 -35.4019C45.7227 -37.457 48.238 -38.3328 50.3169 -37.358L222.033 43.1581C224.111 44.1329 224.967 46.5892 223.943 48.6443C222.919 50.6995 220.404 51.5753 218.325 50.6005L46.609 -29.9157C44.5301 -30.8905 43.6749 -33.3467 44.6988 -35.4019Z" fill="#D3D3DF"/>
<path d="M44.6988 -35.4019C45.7227 -37.457 48.238 -38.3328 50.3169 -37.358L126.141 -1.80483C128.22 -0.830052 129.075 1.62619 128.051 3.68133C127.027 5.73648 124.512 6.61229 122.433 5.63751L46.609 -29.9157C44.5301 -30.8905 43.6749 -33.3467 44.6988 -35.4019Z" fill="#B9B9C9"/>
<path d="M178.265 1.52056C180.518 -3.00076 186.051 -4.92754 190.625 -2.78302L230.122 15.737C234.696 17.8816 236.578 23.2853 234.325 27.8066C232.072 32.3279 226.539 34.2547 221.965 32.1102L182.468 13.5901C177.894 11.4456 176.012 6.04188 178.265 1.52056Z" fill="#727276" fill-opacity="0.64"/>
<path d="M-16.7961 47.8441C-9.40758 33.0142 8.743 26.6944 23.7443 33.7284L180.382 107.175C195.383 114.209 201.555 131.933 194.166 146.763L174.944 185.344C167.555 200.174 149.405 206.494 134.404 199.46L-22.234 126.013C-37.2353 118.979 -43.4067 101.255 -36.0181 86.4254L-16.7961 47.8441Z" fill="#EFEFF3"/>
<path d="M4.65189 44.9751C5.67581 42.9199 8.19114 42.0441 10.27 43.0189L98.6335 84.4519C100.712 85.4267 101.568 87.8829 100.544 89.9381C99.5198 91.9932 97.0045 92.869 94.9256 91.8942L6.56212 50.4612C4.48321 49.4865 3.62798 47.0302 4.65189 44.9751Z" fill="white"/>
<path d="M-15.3715 85.1626C-14.3476 83.1074 -11.8323 82.2316 -9.75339 83.2064L71.2338 121.181C73.3127 122.155 74.1679 124.612 73.144 126.667C72.1201 128.722 69.6048 129.598 67.5259 128.623L-13.4613 90.6487C-15.5402 89.674 -16.3955 87.2177 -15.3715 85.1626Z" fill="white"/>
<path d="M-23.5278 101.536C-22.5039 99.4805 -19.9885 98.6047 -17.9096 99.5795L97.7462 153.81C99.8251 154.784 100.68 157.241 99.6564 159.296C98.6325 161.351 96.1171 162.227 94.0382 161.252L-21.6176 107.022C-23.6965 106.047 -24.5517 103.591 -23.5278 101.536Z" fill="white"/>
<path d="M138.056 157.104C139.08 155.049 141.595 154.173 143.674 155.148L161.963 163.723C164.042 164.698 164.897 167.154 163.873 169.209C162.849 171.265 160.334 172.14 158.255 171.166L139.966 162.59C137.888 161.615 137.032 159.159 138.056 157.104Z" fill="white"/>
<path d="M129.9 173.477C130.924 171.422 133.439 170.546 135.518 171.521L153.807 180.096C155.886 181.071 156.741 183.527 155.717 185.582C154.693 187.638 152.178 188.513 150.099 187.539L131.81 178.963C129.731 177.988 128.876 175.532 129.9 173.477Z" fill="white"/>
<path d="M-5.72896 65.813C-4.70505 63.7578 -2.18972 62.882 -0.110817 63.8568L171.605 144.373C173.684 145.348 174.539 147.804 173.515 149.859C172.491 151.914 169.976 152.79 167.897 151.816L-3.81874 71.2991C-5.89764 70.3244 -6.75287 67.8681 -5.72896 65.813Z" fill="#D3D3DF"/>
<path d="M-5.72896 65.813C-4.70505 63.7578 -2.18972 62.882 -0.110815 63.8568L75.713 99.41C77.7919 100.385 78.6471 102.841 77.6232 104.896C76.5993 106.951 74.0839 107.827 72.005 106.852L-3.81875 71.2991C-5.89765 70.3244 -6.75288 67.8681 -5.72896 65.813Z" fill="#B9B9C9"/>
<path d="M127.835 102.735C130.088 98.2141 135.622 96.2873 140.195 98.4318L179.693 116.952C184.266 119.096 186.148 124.5 183.895 129.021C181.643 133.543 176.109 135.47 171.535 133.325L132.038 114.805C127.464 112.66 125.583 107.257 127.835 102.735Z" fill="#727276" fill-opacity="0.64"/>
<g filter="url(#filter3_d_2_2361)">
<g clip-path="url(#clip6_2_2361)">
<rect width="260.701" height="486.42" rx="30" transform="matrix(0.905409 0.42454 -0.445939 0.895063 -126.078 234.316)" fill="white"/>
<path d="M-175.294 306.197C-167.906 291.367 -149.755 285.048 -134.754 292.082L69.8688 388.028C84.8701 395.062 91.0414 412.786 83.6529 427.616L81.8691 431.196C74.4806 446.026 56.33 452.346 41.3287 445.312L-163.294 349.366C-178.295 342.332 -184.466 324.608 -177.078 309.778L-175.294 306.197Z" fill="#EFEFF3"/>
<path d="M-204.056 363.929C-198.761 353.301 -185.753 348.772 -175.002 353.813L45.012 456.976C55.763 462.017 60.1858 474.719 54.8906 485.348C49.5955 495.976 36.5876 500.505 25.8366 495.464L-194.178 392.301C-204.929 387.26 -209.352 374.557 -204.056 363.929Z" fill="#727276" fill-opacity="0.64"/>
<path fill-rule="evenodd" clip-rule="evenodd" d="M39.1511 471.56L41.3441 477.859C41.4787 478.245 41.267 478.67 40.8712 478.808L34.4212 481.054C34.0254 481.192 33.5955 480.99 33.4609 480.604C33.3263 480.217 33.5381 479.792 33.9339 479.654L39.6672 477.658L37.7178 472.059C37.5832 471.673 37.795 471.248 38.1908 471.11C38.5866 470.972 39.0165 471.174 39.1511 471.56Z" fill="white"/>
<path d="M-231.036 418.08C-223.648 403.25 -205.497 396.93 -190.496 403.964L14.1268 499.91C29.1281 506.944 35.2995 524.669 27.9109 539.498L12.749 569.931C5.36046 584.76 -12.7901 591.08 -27.7914 584.046L-232.414 488.1C-247.415 481.066 -253.587 463.342 -246.198 448.512L-231.036 418.08Z" fill="#727276" fill-opacity="0.64"/>
<path fill-rule="evenodd" clip-rule="evenodd" d="M15.9619 518.103L18.1549 524.402C18.2895 524.788 18.0777 525.213 17.6819 525.351L11.232 527.597C10.8362 527.734 10.4062 527.533 10.2717 527.146C10.1371 526.76 10.3489 526.335 10.7447 526.197L16.4779 524.201L14.5286 518.602C14.394 518.216 14.6058 517.791 15.0016 517.653C15.3974 517.515 15.8273 517.717 15.9619 518.103Z" fill="white"/>
<path d="M-160.28 325.383C-159.049 322.912 -156.024 321.858 -153.524 323.031L46.5717 416.854C49.072 418.026 50.1005 420.98 48.8691 423.452C47.6377 425.924 44.6126 426.977 42.1123 425.805L-157.983 331.981C-160.483 330.809 -161.512 327.855 -160.28 325.383Z" fill="white"/>
</g>
</g>
<g filter="url(#filter4_d_2_2361)">
<g clip-path="url(#clip7_2_2361)">
<rect width="260.701" height="486.42" rx="30" transform="matrix(0.905409 0.42454 -0.445939 0.895063 71.918 494.975)" fill="white"/>
<path d="M68.7078 523.834C73.0178 515.183 83.6056 511.496 92.3564 515.599C101.107 519.703 104.707 530.042 100.397 538.692C96.0871 547.343 85.4993 551.03 76.7485 546.927C67.9978 542.823 64.3978 532.484 68.7078 523.834Z" fill="white"/>
<path fill-rule="evenodd" clip-rule="evenodd" d="M82.5055 537.625L79.1429 527.967C78.9365 527.375 79.2612 526.723 79.8681 526.512L89.7581 523.068C90.3649 522.857 91.0242 523.166 91.2306 523.758C91.4369 524.351 91.1122 525.003 90.5053 525.214L81.7143 528.275L84.7033 536.86C84.9097 537.452 84.5849 538.104 83.9781 538.315C83.3712 538.527 82.7119 538.217 82.5055 537.625Z" fill="#727276" fill-opacity="0.64"/>
<path d="M110.12 541.594C111.351 539.123 114.376 538.07 116.877 539.242L225.526 590.187C228.026 591.359 229.055 594.313 227.823 596.785C226.592 599.256 223.567 600.31 221.066 599.137L112.417 548.192C109.917 547.02 108.888 544.066 110.12 541.594Z" fill="#EFEFF3"/>
<path d="M61.0144 557.216C62.2459 554.744 65.271 553.691 67.7712 554.863L316.759 671.611C319.259 672.784 320.288 675.738 319.056 678.209C317.825 680.681 314.8 681.734 312.299 680.562L63.3118 563.814C60.8116 562.641 59.783 559.687 61.0144 557.216Z" fill="#EFEFF3"/>
<path d="M61.0144 557.216C62.2459 554.744 65.271 553.691 67.7712 554.863L247.948 639.346C250.448 640.519 251.476 643.473 250.245 645.944C249.014 648.416 245.988 649.469 243.488 648.297L63.3118 563.814C60.8116 562.641 59.783 559.687 61.0144 557.216Z" fill="#B9B9C9"/>
<path d="M306.818 633.274C310.636 625.612 320.014 622.347 327.764 625.981C335.515 629.615 338.704 638.772 334.886 646.435C331.069 654.097 321.691 657.362 313.94 653.728C306.19 650.093 303.001 640.936 306.818 633.274Z" fill="#727276" fill-opacity="0.64"/>
</g>
</g>
<g filter="url(#filter5_d_2_2361)">
<g clip-path="url(#clip8_2_2361)">
<rect width="260.701" height="486.42" rx="30" transform="matrix(0.905409 0.42454 -0.445939 0.895063 533.926 -432.342)" fill="white"/>
<path d="M264.174 41.8359L553.905 177.689L535.621 214.386L245.89 78.5335L264.174 41.8359Z" fill="white"/>
<path d="M360.282 108.984C356.834 115.905 348.364 118.854 341.363 115.572C334.363 112.289 331.483 104.018 334.931 97.0973C338.379 90.1767 346.849 87.2274 353.85 90.51C360.85 93.7925 363.73 102.064 360.282 108.984Z" fill="#EFEFF3"/>
<path fill-rule="evenodd" clip-rule="evenodd" d="M553.904 177.689L264.173 41.8365L264.619 40.9414L554.35 176.794L553.904 177.689Z" fill="#E9E9E9"/>
</g>
</g>
<path d="M412.204 -155.156C419.592 -169.986 437.743 -176.306 452.744 -169.272L609.382 -95.8254C624.383 -88.7914 630.555 -71.0672 623.166 -56.2373L603.944 -17.6561C596.555 -2.82618 578.405 3.49363 563.404 -3.54037L406.766 -76.9866C391.765 -84.0206 385.593 -101.745 392.982 -116.575L412.204 -155.156Z" fill="#EFEFF3"/>
<g filter="url(#filter6_d_2_2361)">
<g clip-path="url(#clip9_2_2361)">
<rect width="260.701" height="486.42" rx="30" transform="matrix(0.905409 0.42454 -0.445939 0.895063 302.922 31.3162)" fill="white"/>
<path d="M68.1747 435.231C73.2235 425.098 85.6264 420.779 95.8773 425.586L348.487 544.032C358.737 548.839 362.954 560.95 357.906 571.084C352.857 581.218 340.454 585.536 330.203 580.73L77.5938 462.283C67.3429 457.477 63.1258 445.365 68.1747 435.231Z" fill="white"/>
<path d="M173.425 484.031C169.977 490.952 161.506 493.901 154.506 490.618C147.505 487.336 144.625 479.065 148.073 472.144C151.521 465.223 159.992 462.274 166.992 465.557C173.993 468.839 176.873 477.11 173.425 484.031Z" fill="#EFEFF3"/>
<path d="M279.358 533.701C275.91 540.622 267.44 543.571 260.439 540.288C253.439 537.006 250.559 528.734 254.007 521.814C257.455 514.893 265.925 511.944 272.926 515.227C279.926 518.509 282.806 526.78 279.358 533.701Z" fill="#727276" fill-opacity="0.64"/>
<path fill-rule="evenodd" clip-rule="evenodd" d="M367.047 552.736L77.3158 416.883L77.7617 415.988L367.493 551.841L367.047 552.736Z" fill="#E9E9E9"/>
<path d="M280.462 49.4927C281.693 47.021 284.718 45.9677 287.218 47.14L395.868 98.0848C398.368 99.2571 399.396 102.211 398.165 104.683C396.933 107.154 393.908 108.208 391.408 107.035L282.759 56.0907C280.259 54.9183 279.23 51.9643 280.462 49.4927Z" fill="#EFEFF3"/>
<path d="M253.706 103.197C261.094 88.3675 279.245 82.0476 294.246 89.0817L498.869 185.028C513.87 192.062 520.041 209.786 512.653 224.616L510.869 228.196C503.481 243.026 485.33 249.346 470.329 242.312L265.706 146.366C250.705 139.332 244.534 121.608 251.922 106.778L253.706 103.197Z" fill="#EFEFF3"/>
<path d="M277.194 105.377C278.426 102.906 281.451 101.852 283.951 103.025L392.6 153.97C395.1 155.142 396.129 158.096 394.897 160.568C393.666 163.039 390.641 164.093 388.141 162.92L279.491 111.975C276.991 110.803 275.963 107.849 277.194 105.377Z" fill="white"/>
<path d="M241.778 161.646C245.472 154.231 254.547 151.072 262.048 154.589L460.484 247.634C467.984 251.151 471.07 260.013 467.376 267.428L461.578 279.063C457.884 286.478 448.809 289.638 441.308 286.121L242.873 193.076C235.372 189.559 232.286 180.697 235.981 173.282L241.778 161.646Z" fill="#727276" fill-opacity="0.64"/>
<path fill-rule="evenodd" clip-rule="evenodd" d="M448.151 255.56L450.344 261.859C450.479 262.245 450.267 262.67 449.871 262.808L443.421 265.054C443.025 265.192 442.595 264.99 442.461 264.604C442.326 264.217 442.538 263.792 442.934 263.654L448.667 261.658L446.718 256.059C446.583 255.673 446.795 255.248 447.191 255.11C447.587 254.972 448.017 255.174 448.151 255.56Z" fill="white"/>
<path d="M244.637 170.717C245.869 168.246 248.894 167.192 251.394 168.365L339.219 209.545C341.719 210.717 342.748 213.671 341.516 216.143C340.285 218.615 337.26 219.668 334.76 218.496L246.935 177.315C244.435 176.143 243.406 173.189 244.637 170.717Z" fill="#4D4B5A" fill-opacity="0.51"/>
<path d="M349.665 219.963C350.896 217.492 353.921 216.438 356.422 217.611L376.341 226.951C378.841 228.123 379.869 231.077 378.638 233.549C377.407 236.02 374.381 237.074 371.881 235.901L351.962 226.561C349.462 225.389 348.433 222.435 349.665 219.963Z" fill="#4D4B5A" fill-opacity="0.51"/>
<path d="M218.842 208.309C222.536 200.894 231.612 197.734 239.112 201.251L437.908 294.465C445.409 297.982 448.494 306.844 444.8 314.259L416.26 371.543C412.566 378.958 403.491 382.117 395.99 378.6L197.194 285.387C189.693 281.87 186.608 273.008 190.302 265.593L218.842 208.309Z" fill="#727276" fill-opacity="0.64"/>
<path d="M315.329 288.883C316.56 286.412 319.585 285.358 322.086 286.531L342.005 295.871C344.505 297.043 345.533 299.997 344.302 302.469C343.071 304.94 340.045 305.993 337.545 304.821L317.626 295.481C315.126 294.309 314.097 291.355 315.329 288.883Z" fill="#4D4B5A" fill-opacity="0.51"/>
<path d="M304.18 311.26C305.412 308.789 308.437 307.735 310.937 308.908L330.856 318.247C333.356 319.42 334.385 322.374 333.154 324.845C331.922 327.317 328.897 328.37 326.397 327.198L306.478 317.858C303.978 316.686 302.949 313.732 304.18 311.26Z" fill="#4D4B5A" fill-opacity="0.51"/>
<path fill-rule="evenodd" clip-rule="evenodd" d="M424.962 302.103L427.155 308.402C427.289 308.788 427.078 309.213 426.682 309.351L420.232 311.597C419.836 311.735 419.406 311.533 419.271 311.146C419.137 310.76 419.349 310.335 419.744 310.197L425.478 308.201L423.528 302.602C423.394 302.216 423.606 301.791 424.001 301.653C424.397 301.515 424.827 301.717 424.962 302.103Z" fill="white"/>
<path d="M221.45 217.26C222.681 214.788 225.707 213.735 228.207 214.907L375.788 284.107C378.289 285.28 379.317 288.234 378.086 290.705C376.854 293.177 373.829 294.23 371.329 293.058L223.747 223.858C221.247 222.686 220.219 219.732 221.45 217.26Z" fill="#4D4B5A" fill-opacity="0.51"/>
<path d="M210.302 239.637C211.533 237.166 214.558 236.112 217.058 237.285L304.883 278.465C307.383 279.637 308.412 282.591 307.18 285.063C305.949 287.535 302.924 288.588 300.424 287.416L212.599 246.235C210.099 245.063 209.07 242.109 210.302 239.637Z" fill="#4D4B5A" fill-opacity="0.51"/>
<path d="M199.153 262.014C200.385 259.542 203.41 258.489 205.91 259.662L293.735 300.842C296.235 302.014 297.263 304.968 296.032 307.44C294.8 309.912 291.775 310.965 289.275 309.793L201.45 268.612C198.95 267.44 197.922 264.486 199.153 262.014Z" fill="#4D4B5A" fill-opacity="0.51"/>
<path d="M173.668 300.855C177.363 293.44 186.438 290.281 193.939 293.798L391.17 386.278C398.671 389.795 401.757 398.657 398.062 406.072L392.265 417.708C388.571 425.123 379.496 428.283 371.995 424.766L174.763 332.285C167.263 328.768 164.177 319.906 167.871 312.491L173.668 300.855Z" fill="#727276" fill-opacity="0.64"/>
<path fill-rule="evenodd" clip-rule="evenodd" d="M379.028 394.295L381.221 400.593C381.356 400.98 381.144 401.405 380.748 401.542L374.298 403.788C373.902 403.926 373.472 403.724 373.338 403.338C373.203 402.951 373.415 402.526 373.811 402.389L379.544 400.392L377.595 394.794C377.46 394.407 377.672 393.982 378.068 393.844C378.464 393.707 378.893 393.908 379.028 394.295Z" fill="white"/>
<path d="M175.518 309.452C176.75 306.98 179.775 305.927 182.275 307.099L295.451 360.166C297.951 361.339 298.98 364.293 297.749 366.764C296.517 369.236 293.492 370.289 290.992 369.117L177.816 316.05C175.315 314.877 174.287 311.923 175.518 309.452Z" fill="#4D4B5A" fill-opacity="0.51"/>
<path d="M268.72 122.383C269.951 119.912 272.976 118.858 275.476 120.031L475.572 213.854C478.072 215.026 479.101 217.98 477.869 220.452C476.638 222.924 473.613 223.977 471.112 222.805L271.017 128.981C268.517 127.809 267.488 124.855 268.72 122.383Z" fill="white"/>
</g>
</g>
<g filter="url(#filter7_d_2_2361)">
<g clip-path="url(#clip10_2_2361)">
<rect width="260.701" height="486.42" rx="30" transform="matrix(0.905409 0.42454 -0.445939 0.895063 938.918 55.9744)" fill="white"/>
<path d="M704.171 459.89C709.22 449.756 721.622 445.437 731.873 450.244L984.483 568.69C994.733 573.497 998.951 585.609 993.902 595.742C988.853 605.876 976.45 610.195 966.199 605.388L713.59 486.941C703.339 482.135 699.122 470.023 704.171 459.89Z" fill="white"/>
<path d="M809.421 508.689C805.973 515.61 797.503 518.559 790.502 515.277C783.501 511.994 780.621 503.723 784.069 496.802C787.517 489.882 795.988 486.932 802.988 490.215C809.989 493.497 812.869 501.769 809.421 508.689Z" fill="#EFEFF3"/>
<path d="M915.354 558.359C911.906 565.28 903.436 568.229 896.436 564.946C889.435 561.664 886.555 553.393 890.003 546.472C893.451 539.551 901.921 536.602 908.922 539.885C915.922 543.167 918.802 551.439 915.354 558.359Z" fill="#727276" fill-opacity="0.64"/>
<path fill-rule="evenodd" clip-rule="evenodd" d="M1003.04 577.394L713.312 441.541L713.758 440.646L1003.49 576.499L1003.04 577.394Z" fill="#E9E9E9"/>
<path d="M935.708 84.8333C940.018 76.1825 950.606 72.496 959.356 76.5991C968.107 80.7023 971.707 91.0414 967.397 99.6922C963.087 108.343 952.499 112.03 943.749 107.926C934.998 103.823 931.398 93.4841 935.708 84.8333Z" fill="white"/>
<path fill-rule="evenodd" clip-rule="evenodd" d="M949.506 98.6246L946.143 88.967C945.937 88.3744 946.261 87.7226 946.868 87.5113L956.758 84.0678C957.365 83.8565 958.024 84.1656 958.231 84.7582C958.437 85.3509 958.112 86.0026 957.505 86.2139L948.714 89.2748L951.703 97.8594C951.91 98.452 951.585 99.1037 950.978 99.315C950.371 99.5264 949.712 99.2172 949.506 98.6246Z" fill="#727276" fill-opacity="0.64"/>
<path d="M977.12 102.594C978.351 100.123 981.376 99.0693 983.877 100.242L1092.53 151.186C1095.03 152.359 1096.05 155.313 1094.82 157.784C1093.59 160.256 1090.57 161.309 1088.07 160.137L979.417 109.192C976.917 108.02 975.888 105.066 977.12 102.594Z" fill="#EFEFF3"/>
<path d="M928.014 118.215C929.246 115.744 932.271 114.69 934.771 115.863L1183.76 232.611C1186.26 233.783 1187.29 236.737 1186.06 239.209C1184.82 241.681 1181.8 242.734 1179.3 241.562L930.312 124.813C927.812 123.641 926.783 120.687 928.014 118.215Z" fill="#EFEFF3"/>
<path d="M928.014 118.215C929.246 115.744 932.271 114.69 934.771 115.863L1114.95 200.346C1117.45 201.518 1118.48 204.472 1117.24 206.944C1116.01 209.416 1112.99 210.469 1110.49 209.297L930.312 124.813C927.812 123.641 926.783 120.687 928.014 118.215Z" fill="#B9B9C9"/>
<path d="M1173.82 194.274C1177.64 186.612 1187.01 183.346 1194.76 186.981C1202.51 190.615 1205.7 199.772 1201.89 207.434C1198.07 215.096 1188.69 218.362 1180.94 214.727C1173.19 211.093 1170 201.936 1173.82 194.274Z" fill="#727276" fill-opacity="0.64"/>
<path d="M748.077 479.372C752.387 470.722 762.975 467.035 771.726 471.138L864.077 514.441C872.828 518.544 876.428 528.884 872.118 537.534C867.808 546.185 857.22 549.872 848.469 545.768L756.118 502.465C747.367 498.362 743.767 488.023 748.077 479.372Z" fill="#727276" fill-opacity="0.64"/>
<path d="M882.077 542.204C886.387 533.554 896.975 529.867 905.726 533.97L998.077 577.273C1006.83 581.376 1010.43 591.716 1006.12 600.366C1001.81 609.017 991.22 612.704 982.469 608.6L890.118 565.297C881.367 561.194 877.767 550.855 882.077 542.204Z" fill="#727276" fill-opacity="0.64"/>
<path d="M728.901 517.861C733.211 509.21 743.799 505.523 752.55 509.627L978.902 615.762C987.653 619.865 991.253 630.204 986.943 638.855C982.633 647.505 972.045 651.192 963.294 647.089L736.942 540.954C728.191 536.851 724.591 526.512 728.901 517.861Z" fill="#EFEFF3"/>
<path d="M767.251 440.886C771.561 432.235 782.149 428.549 790.899 432.652L883.251 475.955C892.002 480.058 895.602 490.397 891.292 499.048C886.982 507.699 876.394 511.385 867.643 507.282L775.291 463.979C766.541 459.876 762.941 449.537 767.251 440.886Z" fill="#727276" fill-opacity="0.64"/>
<path d="M901.253 503.718C905.563 495.067 916.151 491.381 924.901 495.484L1017.25 538.787C1026 542.89 1029.6 553.229 1025.29 561.88C1020.98 570.531 1010.4 574.217 1001.65 570.114L909.293 526.811C900.543 522.708 896.943 512.369 901.253 503.718Z" fill="#727276" fill-opacity="0.64"/>
<g filter="url(#filter8_b_2_2361)">
<g clip-path="url(#clip11_2_2361)">
<rect width="320" height="221" rx="30" transform="matrix(0.905409 0.42454 -0.445939 0.895063 776.596 381.777)" fill="#EFEFF3"/>
<g clip-path="url(#clip12_2_2361)" filter="url(#filter9_b_2_2361)">
<rect x="777.428" y="510.994" width="23.9933" height="42.9877" rx="5" transform="rotate(25.7961 777.428 510.994)" fill="white"/>
<rect x="804.43" y="524.045" width="24.993" height="42.9877" rx="5" transform="rotate(25.7961 804.43 524.045)" fill="white"/>
<rect x="832.334" y="537.531" width="23.9933" height="42.9877" rx="5" transform="rotate(25.7961 832.334 537.531)" fill="white"/>
<rect x="859.338" y="550.584" width="22.9936" height="42.9877" rx="5" transform="rotate(25.7961 859.338 550.584)" fill="white"/>
<rect x="885.44" y="563.199" width="23.9933" height="42.9877" rx="5" transform="rotate(25.7961 885.44 563.199)" fill="white"/>
<rect x="912.442" y="576.252" width="24.993" height="42.9877" rx="5" transform="rotate(25.7961 912.442 576.252)" fill="white"/>
<rect x="940.346" y="589.738" width="23.9933" height="42.9877" rx="5" transform="rotate(25.7961 940.346 589.738)" fill="white"/>
<rect x="768.293" y="446.619" width="25.9927" height="42.9877" rx="5" transform="rotate(25.7961 768.293 446.619)" fill="white"/>
<rect x="797.096" y="460.541" width="24.993" height="42.9877" rx="5" transform="rotate(25.7961 797.096 460.541)" fill="white"/>
<rect x="825" y="474.027" width="26.9924" height="42.9877" rx="5" transform="rotate(25.7961 825 474.027)" fill="white"/>
<rect x="854.701" y="488.383" width="25.9927" height="42.9877" rx="5" transform="rotate(25.7961 854.701 488.383)" fill="white"/>
<rect x="883.504" y="502.304" width="24.993" height="42.9877" rx="5" transform="rotate(25.7961 883.504 502.304)" fill="white"/>
<rect x="911.408" y="515.791" width="25.9927" height="42.9877" rx="5" transform="rotate(25.7961 911.408 515.791)" fill="white"/>
<rect x="940.213" y="529.713" width="26.9924" height="42.9877" rx="5" transform="rotate(25.7961 940.213 529.713)" fill="white"/>
<rect x="969.914" y="544.07" width="24.993" height="42.9877" rx="5" transform="rotate(25.7961 969.914 544.07)" fill="white"/>
<rect x="997.817" y="557.556" width="25.9927" height="42.9877" rx="5" transform="rotate(25.7961 997.817 557.556)" fill="white"/>
<rect x="776.707" y="390.726" width="25.9927" height="42.9877" rx="5" transform="rotate(25.7961 776.707 390.726)" fill="white"/>
<rect x="805.51" y="404.648" width="24.993" height="42.9877" rx="5" transform="rotate(25.7961 805.51 404.648)" fill="white"/>
<rect x="833.414" y="418.135" width="25.9927" height="42.9877" rx="5" transform="rotate(25.7961 833.414 418.135)" fill="white"/>
<rect x="862.215" y="432.056" width="24.993" height="42.9877" rx="5" transform="rotate(25.7961 862.215 432.056)" fill="white"/>
<rect x="890.119" y="445.543" width="25.9927" height="42.9877" rx="5" transform="rotate(25.7961 890.119 445.543)" fill="white"/>
<rect x="918.922" y="459.465" width="24.993" height="42.9877" rx="5" transform="rotate(25.7961 918.922 459.465)" fill="white"/>
<rect x="946.824" y="472.951" width="24.993" height="42.9877" rx="5" transform="rotate(25.7961 946.824 472.951)" fill="white"/>
<rect x="974.729" y="486.437" width="25.9927" height="42.9877" rx="5" transform="rotate(25.7961 974.729 486.437)" fill="white"/>
<rect x="1003.53" y="500.359" width="24.993" height="42.9877" rx="5" transform="rotate(25.7961 1003.53 500.359)" fill="white"/>
<rect x="1031.43" y="513.845" width="25.9927" height="42.9877" rx="5" transform="rotate(25.7961 1031.43 513.845)" fill="white"/>
<rect x="727.922" y="487.066" width="41.9883" height="42.9877" rx="5" transform="rotate(25.7961 727.922 487.066)" fill="white"/>
</g>
<g clip-path="url(#clip13_2_2361)">
<rect x="700.676" y="540.333" width="39.9888" height="42.9877" rx="5" transform="rotate(25.7961 700.676 540.333)" fill="white"/>
<rect x="785.286" y="581.227" width="30.9913" height="41.988" rx="5" transform="rotate(25.7961 785.286 581.227)" fill="white"/>
<rect x="742.981" y="560.78" width="39.9888" height="42.9877" rx="5" transform="rotate(25.7961 742.981 560.78)" fill="white"/>
<rect x="819.487" y="597.759" width="87.9754" height="41.988" rx="5" transform="rotate(25.7961 819.487 597.759)" fill="white"/>
</g>
</g>
</g>
<path d="M805.602 363.909C809.912 355.259 820.5 351.572 829.251 355.675L1055.6 461.81C1064.35 465.913 1067.95 476.253 1063.64 484.903C1059.33 493.554 1048.75 497.241 1040 493.137L813.643 387.003C804.892 382.899 801.292 372.56 805.602 363.909Z" fill="#EFEFF3"/>
<path d="M1042.91 470.477C1043.71 468.864 1045.85 468.693 1046.61 470.18L1050.31 476.069C1050.98 477.36 1050.13 479.064 1048.67 479.363L1041.61 480.206C1039.94 480.55 1038.75 478.821 1039.56 477.209L1042.91 470.477Z" fill="#727276" fill-opacity="0.64"/>
</g>
</g>
<g filter="url(#filter10_d_2_2361)">
<g clip-path="url(#clip14_2_2361)">
<rect width="260.701" height="486.42" rx="30" transform="matrix(0.905409 0.42454 -0.445939 0.895063 707.914 519.632)" fill="white"/>
<path d="M704.704 548.491C709.014 539.841 719.602 536.154 728.352 540.257C737.103 544.36 740.703 554.699 736.393 563.35C732.083 572.001 721.495 575.688 712.745 571.584C703.994 567.481 700.394 557.142 704.704 548.491Z" fill="white"/>
<path fill-rule="evenodd" clip-rule="evenodd" d="M718.502 562.283L715.139 552.625C714.933 552.032 715.257 551.381 715.864 551.169L725.754 547.726C726.361 547.515 727.02 547.824 727.227 548.416C727.433 549.009 727.108 549.661 726.501 549.872L717.71 552.933L720.699 561.517C720.906 562.11 720.581 562.762 719.974 562.973C719.367 563.184 718.708 562.875 718.502 562.283Z" fill="#727276" fill-opacity="0.64"/>
<path d="M746.116 566.252C747.347 563.781 750.373 562.727 752.873 563.9L861.522 614.844C864.022 616.017 865.051 618.971 863.819 621.442C862.588 623.914 859.563 624.967 857.062 623.795L748.413 572.85C745.913 571.678 744.885 568.724 746.116 566.252Z" fill="#EFEFF3"/>
<path d="M697.011 581.873C698.242 579.402 701.267 578.348 703.767 579.521L952.755 696.269C955.255 697.442 956.284 700.396 955.052 702.867C953.821 705.339 950.796 706.392 948.295 705.22L699.308 588.471C696.808 587.299 695.779 584.345 697.011 581.873Z" fill="#EFEFF3"/>
<path d="M697.011 581.873C698.242 579.402 701.267 578.348 703.767 579.521L845.917 646.174C848.417 647.346 849.445 650.3 848.214 652.772C846.982 655.243 843.957 656.296 841.457 655.124L699.308 588.471C696.808 587.299 695.779 584.345 697.011 581.873Z" fill="#B9B9C9"/>
<path d="M942.815 657.932C946.632 650.27 956.01 647.004 963.76 650.639C971.511 654.273 974.7 663.43 970.882 671.092C967.065 678.755 957.687 682.02 949.936 678.386C942.186 674.751 938.997 665.594 942.815 657.932Z" fill="#727276" fill-opacity="0.64"/>
</g>
</g>
<g filter="url(#filter11_d_2_2361)">
<g clip-path="url(#clip15_2_2361)">
<rect width="260.701" height="486.42" rx="30" transform="matrix(0.905409 0.42454 -0.445939 0.895063 1169.92 -407.684)" fill="white"/>
<path d="M935.175 -3.76839C940.224 -13.9022 952.626 -18.2207 962.877 -13.4141L1215.49 105.032C1225.74 109.839 1229.95 121.951 1224.91 132.084C1219.86 142.218 1207.45 146.537 1197.2 141.73L944.594 23.2835C934.343 18.4769 930.126 6.36538 935.175 -3.76839Z" fill="white"/>
<path d="M1040.42 45.0313C1036.98 51.9519 1028.51 54.9011 1021.51 51.6186C1014.51 48.3361 1011.63 40.0648 1015.07 33.1442C1018.52 26.2236 1026.99 23.2743 1033.99 26.5568C1040.99 29.8394 1043.87 38.1107 1040.42 45.0313Z" fill="#EFEFF3"/>
<path d="M1146.36 94.7012C1142.91 101.622 1134.44 104.571 1127.44 101.289C1120.44 98.006 1117.56 89.7347 1121.01 82.8141C1124.45 75.8935 1132.93 72.9442 1139.93 76.2268C1146.93 79.5093 1149.81 87.7806 1146.36 94.7012Z" fill="#727276" fill-opacity="0.64"/>
<path fill-rule="evenodd" clip-rule="evenodd" d="M1234.05 113.736L944.316 -22.1167L944.762 -23.0117L1234.49 112.841L1234.05 113.736Z" fill="#E9E9E9"/>
<path d="M1022.82 -139.336C1028.12 -149.964 1041.13 -154.494 1051.88 -149.452L1271.89 -46.2893C1282.64 -41.2483 1287.06 -28.5459 1281.77 -17.9179C1276.47 -7.28976 1263.47 -2.76056 1252.72 -7.8016L1032.7 -110.965C1021.95 -116.006 1017.53 -128.708 1022.82 -139.336Z" fill="#727276" fill-opacity="0.64"/>
</g>
</g>
</g>
<defs>
<filter id="filter0_d_2_2361" x="616.016" y="-495.838" width="532.955" height="626.055" filterUnits="userSpaceOnUse" color-interpolation-filters="sRGB">
<feFlood flood-opacity="0" result="BackgroundImageFix"/>
<feColorMatrix in="SourceAlpha" type="matrix" values="0 0 0 0 0 0 0 0 0 0 0 0 0 0 0 0 0 0 127 0" result="hardAlpha"/>
<feOffset dy="4"/>
<feGaussianBlur stdDeviation="20"/>
<feColorMatrix type="matrix" values="0 0 0 0 0.704167 0 0 0 0 0.689497 0 0 0 0 0.689497 0 0 0 0.25 0"/>
<feBlend mode="normal" in2="BackgroundImageFix" result="effect1_dropShadow_2_2361"/>
<feBlend mode="normal" in="SourceGraphic" in2="effect1_dropShadow_2_2361" result="shape"/>
</filter>
<filter id="filter1_d_2_2361" x="154.008" y="431.478" width="532.955" height="626.055" filterUnits="userSpaceOnUse" color-interpolation-filters="sRGB">
<feFlood flood-opacity="0" result="BackgroundImageFix"/>
<feColorMatrix in="SourceAlpha" type="matrix" values="0 0 0 0 0 0 0 0 0 0 0 0 0 0 0 0 0 0 127 0" result="hardAlpha"/>
<feOffset dy="4"/>
<feGaussianBlur stdDeviation="20"/>
<feColorMatrix type="matrix" values="0 0 0 0 0.704167 0 0 0 0 0.689497 0 0 0 0 0.689497 0 0 0 0.25 0"/>
<feBlend mode="normal" in2="BackgroundImageFix" result="effect1_dropShadow_2_2361"/>
<feBlend mode="normal" in="SourceGraphic" in2="effect1_dropShadow_2_2361" result="shape"/>
</filter>
<filter id="filter2_d_2_2361" x="1136.02" y="-244" width="532.955" height="626.055" filterUnits="userSpaceOnUse" color-interpolation-filters="sRGB">
<feFlood flood-opacity="0" result="BackgroundImageFix"/>
<feColorMatrix in="SourceAlpha" type="matrix" values="0 0 0 0 0 0 0 0 0 0 0 0 0 0 0 0 0 0 127 0" result="hardAlpha"/>
<feOffset dy="4"/>
<feGaussianBlur stdDeviation="20"/>
<feColorMatrix type="matrix" values="0 0 0 0 0.704167 0 0 0 0 0.689497 0 0 0 0 0.689497 0 0 0 0.25 0"/>
<feBlend mode="normal" in2="BackgroundImageFix" result="effect1_dropShadow_2_2361"/>
<feBlend mode="normal" in="SourceGraphic" in2="effect1_dropShadow_2_2361" result="shape"/>
</filter>
<filter id="filter3_d_2_2361" x="-382.992" y="198.316" width="532.956" height="626.055" filterUnits="userSpaceOnUse" color-interpolation-filters="sRGB">
<feFlood flood-opacity="0" result="BackgroundImageFix"/>
<feColorMatrix in="SourceAlpha" type="matrix" values="0 0 0 0 0 0 0 0 0 0 0 0 0 0 0 0 0 0 127 0" result="hardAlpha"/>
<feOffset dy="4"/>
<feGaussianBlur stdDeviation="20"/>
<feColorMatrix type="matrix" values="0 0 0 0 0.704167 0 0 0 0 0.689497 0 0 0 0 0.689497 0 0 0 0.25 0"/>
<feBlend mode="normal" in2="BackgroundImageFix" result="effect1_dropShadow_2_2361"/>
<feBlend mode="normal" in="SourceGraphic" in2="effect1_dropShadow_2_2361" result="shape"/>
</filter>
<filter id="filter4_d_2_2361" x="-184.996" y="458.975" width="532.955" height="626.055" filterUnits="userSpaceOnUse" color-interpolation-filters="sRGB">
<feFlood flood-opacity="0" result="BackgroundImageFix"/>
<feColorMatrix in="SourceAlpha" type="matrix" values="0 0 0 0 0 0 0 0 0 0 0 0 0 0 0 0 0 0 127 0" result="hardAlpha"/>
<feOffset dy="4"/>
<feGaussianBlur stdDeviation="20"/>
<feColorMatrix type="matrix" values="0 0 0 0 0.704167 0 0 0 0 0.689497 0 0 0 0 0.689497 0 0 0 0.25 0"/>
<feBlend mode="normal" in2="BackgroundImageFix" result="effect1_dropShadow_2_2361"/>
<feBlend mode="normal" in="SourceGraphic" in2="effect1_dropShadow_2_2361" result="shape"/>
</filter>
<filter id="filter5_d_2_2361" x="277.012" y="-468.342" width="532.955" height="626.055" filterUnits="userSpaceOnUse" color-interpolation-filters="sRGB">
<feFlood flood-opacity="0" result="BackgroundImageFix"/>
<feColorMatrix in="SourceAlpha" type="matrix" values="0 0 0 0 0 0 0 0 0 0 0 0 0 0 0 0 0 0 127 0" result="hardAlpha"/>
<feOffset dy="4"/>
<feGaussianBlur stdDeviation="20"/>
<feColorMatrix type="matrix" values="0 0 0 0 0.704167 0 0 0 0 0.689497 0 0 0 0 0.689497 0 0 0 0.25 0"/>
<feBlend mode="normal" in2="BackgroundImageFix" result="effect1_dropShadow_2_2361"/>
<feBlend mode="normal" in="SourceGraphic" in2="effect1_dropShadow_2_2361" result="shape"/>
</filter>
<filter id="filter6_d_2_2361" x="46.0081" y="-4.68384" width="532.955" height="626.055" filterUnits="userSpaceOnUse" color-interpolation-filters="sRGB">
<feFlood flood-opacity="0" result="BackgroundImageFix"/>
<feColorMatrix in="SourceAlpha" type="matrix" values="0 0 0 0 0 0 0 0 0 0 0 0 0 0 0 0 0 0 127 0" result="hardAlpha"/>
<feOffset dy="4"/>
<feGaussianBlur stdDeviation="20"/>
<feColorMatrix type="matrix" values="0 0 0 0 0.704167 0 0 0 0 0.689497 0 0 0 0 0.689497 0 0 0 0.25 0"/>
<feBlend mode="normal" in2="BackgroundImageFix" result="effect1_dropShadow_2_2361"/>
<feBlend mode="normal" in="SourceGraphic" in2="effect1_dropShadow_2_2361" result="shape"/>
</filter>
<filter id="filter7_d_2_2361" x="682.004" y="19.9744" width="532.955" height="626.055" filterUnits="userSpaceOnUse" color-interpolation-filters="sRGB">
<feFlood flood-opacity="0" result="BackgroundImageFix"/>
<feColorMatrix in="SourceAlpha" type="matrix" values="0 0 0 0 0 0 0 0 0 0 0 0 0 0 0 0 0 0 127 0" result="hardAlpha"/>
<feOffset dy="4"/>
<feGaussianBlur stdDeviation="20"/>
<feColorMatrix type="matrix" values="0 0 0 0 0.704167 0 0 0 0 0.689497 0 0 0 0 0.689497 0 0 0 0.25 0"/>
<feBlend mode="normal" in2="BackgroundImageFix" result="effect1_dropShadow_2_2361"/>
<feBlend mode="normal" in="SourceGraphic" in2="effect1_dropShadow_2_2361" result="shape"/>
</filter>
<filter id="filter8_b_2_2361" x="608.043" y="311.777" width="528.283" height="473.662" filterUnits="userSpaceOnUse" color-interpolation-filters="sRGB">
<feFlood flood-opacity="0" result="BackgroundImageFix"/>
<feGaussianBlur in="BackgroundImageFix" stdDeviation="35"/>
<feComposite in2="SourceAlpha" operator="in" result="effect1_backgroundBlur_2_2361"/>
<feBlend mode="normal" in="SourceGraphic" in2="effect1_backgroundBlur_2_2361" result="shape"/>
</filter>
<filter id="filter9_b_2_2361" x="632.144" y="311.351" width="501.575" height="431.374" filterUnits="userSpaceOnUse" color-interpolation-filters="sRGB">
<feFlood flood-opacity="0" result="BackgroundImageFix"/>
<feGaussianBlur in="BackgroundImageFix" stdDeviation="35"/>
<feComposite in2="SourceAlpha" operator="in" result="effect1_backgroundBlur_2_2361"/>
<feBlend mode="normal" in="SourceGraphic" in2="effect1_backgroundBlur_2_2361" result="shape"/>
</filter>
<filter id="filter10_d_2_2361" x="451" y="483.632" width="532.955" height="626.055" filterUnits="userSpaceOnUse" color-interpolation-filters="sRGB">
<feFlood flood-opacity="0" result="BackgroundImageFix"/>
<feColorMatrix in="SourceAlpha" type="matrix" values="0 0 0 0 0 0 0 0 0 0 0 0 0 0 0 0 0 0 127 0" result="hardAlpha"/>
<feOffset dy="4"/>
<feGaussianBlur stdDeviation="20"/>
<feColorMatrix type="matrix" values="0 0 0 0 0.704167 0 0 0 0 0.689497 0 0 0 0 0.689497 0 0 0 0.25 0"/>
<feBlend mode="normal" in2="BackgroundImageFix" result="effect1_dropShadow_2_2361"/>
<feBlend mode="normal" in="SourceGraphic" in2="effect1_dropShadow_2_2361" result="shape"/>
</filter>
<filter id="filter11_d_2_2361" x="913.008" y="-443.684" width="532.955" height="626.055" filterUnits="userSpaceOnUse" color-interpolation-filters="sRGB">
<feFlood flood-opacity="0" result="BackgroundImageFix"/>
<feColorMatrix in="SourceAlpha" type="matrix" values="0 0 0 0 0 0 0 0 0 0 0 0 0 0 0 0 0 0 127 0" result="hardAlpha"/>
<feOffset dy="4"/>
<feGaussianBlur stdDeviation="20"/>
<feColorMatrix type="matrix" values="0 0 0 0 0.704167 0 0 0 0 0.689497 0 0 0 0 0.689497 0 0 0 0.25 0"/>
<feBlend mode="normal" in2="BackgroundImageFix" result="effect1_dropShadow_2_2361"/>
<feBlend mode="normal" in="SourceGraphic" in2="effect1_dropShadow_2_2361" result="shape"/>
</filter>
<clipPath id="clip0_2_2361">
<rect width="260.701" height="486.42" rx="30" transform="matrix(0.905409 0.42454 -0.445939 0.895063 872.93 -459.838)" fill="white"/>
</clipPath>
<clipPath id="clip1_2_2361">
<rect width="260.701" height="486.42" rx="30" transform="matrix(0.905409 0.42454 -0.445939 0.895063 641.926 3.82031)" fill="white"/>
</clipPath>
<clipPath id="clip2_2_2361">
<rect width="260.701" height="486.42" rx="30" transform="matrix(0.905409 0.42454 -0.445939 0.895063 410.922 467.478)" fill="white"/>
</clipPath>
<clipPath id="clip3_2_2361">
<rect width="260.701" height="486.42" rx="30" transform="matrix(0.905409 0.42454 -0.445939 0.895063 1392.93 -208)" fill="white"/>
</clipPath>
<clipPath id="clip4_2_2361">
<rect width="260.701" height="486.42" rx="30" transform="matrix(0.905409 0.42454 -0.445939 0.895063 1161.93 255.658)" fill="white"/>
</clipPath>
<clipPath id="clip5_2_2361">
<rect width="260.701" height="486.42" rx="30" transform="matrix(0.905409 0.42454 -0.445939 0.895063 104.926 -229.342)" fill="white"/>
</clipPath>
<clipPath id="clip6_2_2361">
<rect width="260.701" height="486.42" rx="30" transform="matrix(0.905409 0.42454 -0.445939 0.895063 -126.078 234.316)" fill="white"/>
</clipPath>
<clipPath id="clip7_2_2361">
<rect width="260.701" height="486.42" rx="30" transform="matrix(0.905409 0.42454 -0.445939 0.895063 71.918 494.975)" fill="white"/>
</clipPath>
<clipPath id="clip8_2_2361">
<rect width="260.701" height="486.42" rx="30" transform="matrix(0.905409 0.42454 -0.445939 0.895063 533.926 -432.342)" fill="white"/>
</clipPath>
<clipPath id="clip9_2_2361">
<rect width="260.701" height="486.42" rx="30" transform="matrix(0.905409 0.42454 -0.445939 0.895063 302.922 31.3162)" fill="white"/>
</clipPath>
<clipPath id="clip10_2_2361">
<rect width="260.701" height="486.42" rx="30" transform="matrix(0.905409 0.42454 -0.445939 0.895063 938.918 55.9744)" fill="white"/>
</clipPath>
<clipPath id="clip11_2_2361">
<rect width="320" height="221" rx="30" transform="matrix(0.905409 0.42454 -0.445939 0.895063 776.596 381.777)" fill="white"/>
</clipPath>
<clipPath id="clip12_2_2361">
<rect width="320" height="169.048" fill="white" transform="matrix(0.900097 0.435048 -0.435045 0.900092 775.688 381.351)"/>
</clipPath>
<clipPath id="clip13_2_2361">
<rect width="320" height="49.014" fill="white" transform="matrix(0.900097 0.435048 -0.435045 0.900092 699.28 536.327)"/>
</clipPath>
<clipPath id="clip14_2_2361">
<rect width="260.701" height="486.42" rx="30" transform="matrix(0.905409 0.42454 -0.445939 0.895063 707.914 519.632)" fill="white"/>
</clipPath>
<clipPath id="clip15_2_2361">
<rect width="260.701" height="486.42" rx="30" transform="matrix(0.905409 0.42454 -0.445939 0.895063 1169.92 -407.684)" fill="white"/>
</clipPath>
</defs>
</svg>
