<svg width="590" height="22" viewBox="0 0 590 22" fill="none" xmlns="http://www.w3.org/2000/svg">
<g clip-path="url(#clip0_677_93)">
<path d="M12.2812 11C12.2812 7.79886 9.70114 5.21875 6.5 5.21875C3.29886 5.21875 0.71875 7.79886 0.71875 11C0.71875 14.2011 3.29886 16.7812 6.5 16.7812C9.70114 16.7812 12.2812 14.2011 12.2812 11ZM0.5 11C0.5 7.70114 3.20114 5 6.5 5C9.79886 5 12.5 7.70114 12.5 11C12.5 14.2989 9.79886 17 6.5 17C3.20114 17 0.5 14.2989 0.5 11Z" fill="black" stroke="black"/>
<path d="M8.04375 12.8688C7.6375 13.1938 7.06875 13.4375 6.5 13.4375C5.11875 13.4375 4.0625 12.3812 4.0625 11C4.0625 9.61875 5.11875 8.5625 6.5 8.5625C7.15 8.5625 7.8 8.80625 8.20625 9.29375L9.1 8.4C8.45 7.75 7.475 7.34375 6.5 7.34375C4.46875 7.34375 2.84375 8.96875 2.84375 11C2.84375 13.0312 4.46875 14.6562 6.5 14.6562C7.39375 14.6562 8.125 14.3313 8.775 13.8438L8.04375 12.8688Z" fill="black"/>
</g>
<path d="M19.784 16V14.448L23.64 11.168C24.4293 10.5067 24.9733 9.96267 25.272 9.536C25.5813 9.09867 25.736 8.63467 25.736 8.144C25.736 7.61067 25.5653 7.18933 25.224 6.88C24.8827 6.56 24.4507 6.4 23.928 6.4C23.4373 6.4 22.9947 6.53333 22.6 6.8C22.216 7.06667 21.7947 7.49333 21.336 8.08L19.944 6.992C20.52 6.18133 21.112 5.58933 21.72 5.216C22.3387 4.832 23.1227 4.64 24.072 4.64C25.1707 4.64 26.0613 4.94933 26.744 5.568C27.4267 6.18667 27.768 7.00267 27.768 8.016C27.768 8.45333 27.7147 8.848 27.608 9.2C27.5013 9.54133 27.3093 9.89333 27.032 10.256C26.7653 10.608 26.472 10.9333 26.152 11.232C25.8427 11.52 25.4107 11.8933 24.856 12.352L22.552 14.272H27.88V16H19.784ZM34.5885 16.192C33.1378 16.192 31.9645 15.6427 31.0685 14.544C30.1725 13.4347 29.7245 12.0533 29.7245 10.4C29.7245 8.768 30.1778 7.39733 31.0845 6.288C32.0018 5.168 33.1805 4.608 34.6205 4.608C36.0605 4.608 37.2285 5.16267 38.1245 6.272C39.0312 7.38133 39.4845 8.75733 39.4845 10.4C39.4845 12.032 39.0258 13.408 38.1085 14.528C37.2018 15.6373 36.0285 16.192 34.5885 16.192ZM32.5405 13.264C33.0738 14.032 33.7672 14.416 34.6205 14.416C35.4738 14.416 36.1565 14.0373 36.6685 13.28C37.1912 12.512 37.4525 11.552 37.4525 10.4C37.4525 9.26933 37.1858 8.32 36.6525 7.552C36.1192 6.77333 35.4312 6.384 34.5885 6.384C33.7352 6.384 33.0472 6.768 32.5245 7.536C32.0125 8.29333 31.7565 9.248 31.7565 10.4C31.7565 11.5307 32.0178 12.4853 32.5405 13.264ZM41.0184 16V14.448L44.8744 11.168C45.6637 10.5067 46.2077 9.96267 46.5064 9.536C46.8157 9.09867 46.9704 8.63467 46.9704 8.144C46.9704 7.61067 46.7997 7.18933 46.4584 6.88C46.117 6.56 45.685 6.4 45.1624 6.4C44.6717 6.4 44.229 6.53333 43.8344 6.8C43.4504 7.06667 43.029 7.49333 42.5704 8.08L41.1784 6.992C41.7544 6.18133 42.3464 5.58933 42.9544 5.216C43.573 4.832 44.357 4.64 45.3064 4.64C46.405 4.64 47.2957 4.94933 47.9784 5.568C48.661 6.18667 49.0024 7.00267 49.0024 8.016C49.0024 8.45333 48.949 8.848 48.8424 9.2C48.7357 9.54133 48.5437 9.89333 48.2664 10.256C47.9997 10.608 47.7064 10.9333 47.3864 11.232C47.077 11.52 46.645 11.8933 46.0904 12.352L43.7864 14.272H49.1144V16H41.0184ZM55.0229 16.192C53.2415 16.192 51.8122 15.536 50.7349 14.224L52.1109 12.944C52.9429 13.9253 53.9242 14.416 55.0549 14.416C55.6202 14.416 56.0842 14.2613 56.4469 13.952C56.8095 13.632 56.9909 13.2107 56.9909 12.688C56.9909 12.144 56.7562 11.7227 56.2869 11.424C55.8282 11.1147 55.2042 10.96 54.4149 10.96H53.5029L53.1829 9.728L56.2069 6.512H51.3589V4.8H58.7669V6.272L55.6469 9.472C56.6282 9.61067 57.4229 9.94133 58.0309 10.464C58.6389 10.976 58.9429 11.7067 58.9429 12.656C58.9429 13.6907 58.5749 14.5387 57.8389 15.2C57.1135 15.8613 56.1749 16.192 55.0229 16.192ZM68.6544 16.16C67.1504 16.16 65.9557 15.5573 65.0704 14.352L66.3664 13.024C67.0597 13.8987 67.8117 14.336 68.6224 14.336C69.1664 14.336 69.5984 14.1547 69.9184 13.792C70.2384 13.4187 70.3984 12.8693 70.3984 12.144V4.8H72.4144V12.192C72.4144 13.4827 72.0677 14.4747 71.3744 15.168C70.713 15.8293 69.8064 16.16 68.6544 16.16ZM78.9039 16.192C77.6239 16.192 76.5572 15.7653 75.7039 14.912C74.8505 14.0587 74.4239 13.0187 74.4239 11.792C74.4239 10.5653 74.8559 9.52533 75.7199 8.672C76.5839 7.808 77.6559 7.376 78.9359 7.376C80.2159 7.376 81.2825 7.80267 82.1359 8.656C82.9999 9.50933 83.4319 10.5547 83.4319 11.792C83.4319 13.008 82.9999 14.048 82.1359 14.912C81.2719 15.7653 80.1945 16.192 78.9039 16.192ZM78.9359 14.512C79.7039 14.512 80.3225 14.2507 80.7919 13.728C81.2612 13.2053 81.4959 12.56 81.4959 11.792C81.4959 11.0347 81.2505 10.3947 80.7599 9.872C80.2692 9.33867 79.6505 9.072 78.9039 9.072C78.1465 9.072 77.5332 9.33333 77.0639 9.856C76.5945 10.3787 76.3599 11.024 76.3599 11.792C76.3599 12.5387 76.6052 13.1787 77.0959 13.712C77.5865 14.2453 78.1999 14.512 78.9359 14.512ZM86.6471 18.608C85.9431 18.608 85.2765 18.4373 84.6471 18.096L85.3031 16.656C85.6978 16.8693 86.0765 16.976 86.4391 16.976C86.7165 16.976 86.9458 16.9013 87.1271 16.752C87.3085 16.6133 87.4791 16.3627 87.6391 16L84.1191 7.552H86.1831L88.5831 13.824L90.7751 7.552H92.7911L89.4311 16.24C89.0898 17.104 88.7111 17.712 88.2951 18.064C87.8791 18.4267 87.3298 18.608 86.6471 18.608ZM99.4713 16V4.8H103.647C105.397 4.8 106.826 5.33333 107.935 6.4C109.045 7.456 109.599 8.78933 109.599 10.4C109.599 12 109.039 13.3333 107.919 14.4C106.81 15.4667 105.386 16 103.647 16H99.4713ZM101.439 14.208H103.647C104.81 14.208 105.749 13.856 106.463 13.152C107.178 12.4373 107.535 11.52 107.535 10.4C107.535 9.29067 107.178 8.37867 106.463 7.664C105.749 6.94933 104.81 6.592 103.647 6.592H101.439V14.208ZM115.635 16.192C114.398 16.192 113.363 15.7813 112.531 14.96C111.71 14.1387 111.299 13.0773 111.299 11.776C111.299 10.5493 111.688 9.50933 112.467 8.656C113.246 7.80267 114.232 7.376 115.427 7.376C116.707 7.376 117.699 7.81333 118.403 8.688C119.118 9.552 119.475 10.6293 119.475 11.92C119.475 12.1547 119.464 12.336 119.443 12.464H113.235C113.342 13.136 113.614 13.664 114.051 14.048C114.488 14.4213 115.027 14.608 115.667 14.608C116.499 14.608 117.262 14.272 117.955 13.6L119.091 14.608C118.216 15.664 117.064 16.192 115.635 16.192ZM113.219 11.184H117.555C117.491 10.5333 117.272 10 116.899 9.584C116.526 9.168 116.03 8.96 115.411 8.96C114.824 8.96 114.334 9.168 113.939 9.584C113.544 9.98933 113.304 10.5227 113.219 11.184ZM123.685 16.064L120.213 7.552H122.293L124.565 13.76L126.853 7.552H128.885L125.429 16.064H123.685ZM129.041 16V13.808H131.169V16H129.041ZM138.487 16V4.8H143.511C144.802 4.8 145.778 5.13067 146.439 5.792C146.94 6.29333 147.191 6.92267 147.191 7.68C147.191 8.78933 146.658 9.62133 145.591 10.176C147.074 10.6773 147.815 11.5947 147.815 12.928C147.815 13.9093 147.442 14.6667 146.695 15.2C145.948 15.7333 144.94 16 143.671 16H138.487ZM140.423 9.52H143.111C143.762 9.52 144.274 9.392 144.647 9.136C145.031 8.86933 145.223 8.48 145.223 7.968C145.223 7.52 145.052 7.17333 144.711 6.928C144.37 6.672 143.884 6.544 143.255 6.544H140.423V9.52ZM140.423 14.256H143.687C144.37 14.256 144.898 14.1227 145.271 13.856C145.655 13.5893 145.847 13.2 145.847 12.688C145.847 11.6853 145.079 11.184 143.543 11.184H140.423V14.256ZM153.714 16.192C152.466 16.192 151.426 15.7707 150.594 14.928C149.762 14.0747 149.346 13.04 149.346 11.824V11.792C149.346 10.576 149.762 9.536 150.594 8.672C151.436 7.808 152.482 7.376 153.73 7.376C155.095 7.376 156.22 7.86133 157.106 8.832L155.906 10.128C155.234 9.424 154.503 9.072 153.714 9.072C153.02 9.072 152.439 9.33333 151.97 9.856C151.511 10.3787 151.282 11.0133 151.282 11.76V11.792C151.282 12.56 151.516 13.2053 151.986 13.728C152.466 14.2507 153.074 14.512 153.81 14.512C154.588 14.512 155.319 14.16 156.002 13.456L157.17 14.608C156.711 15.12 156.21 15.5147 155.666 15.792C155.132 16.0587 154.482 16.192 153.714 16.192ZM162.432 16.192C161.194 16.192 160.16 15.7813 159.328 14.96C158.506 14.1387 158.096 13.0773 158.096 11.776C158.096 10.5493 158.485 9.50933 159.264 8.656C160.042 7.80267 161.029 7.376 162.224 7.376C163.504 7.376 164.496 7.81333 165.2 8.688C165.914 9.552 166.272 10.6293 166.272 11.92C166.272 12.1547 166.261 12.336 166.24 12.464H160.032C160.138 13.136 160.41 13.664 160.848 14.048C161.285 14.4213 161.824 14.608 162.464 14.608C163.296 14.608 164.058 14.272 164.752 13.6L165.888 14.608C165.013 15.664 163.861 16.192 162.432 16.192ZM160.016 11.184H164.352C164.288 10.5333 164.069 10 163.696 9.584C163.322 9.168 162.826 8.96 162.208 8.96C161.621 8.96 161.13 9.168 160.736 9.584C160.341 9.98933 160.101 10.5227 160.016 11.184ZM173.013 16V7.552H180.549V16H178.613V9.216H174.949V16H173.013ZM182.982 18.56V7.552H184.918V8.96C185.664 7.904 186.619 7.376 187.782 7.376C188.848 7.376 189.771 7.776 190.55 8.576C191.328 9.36533 191.718 10.4373 191.718 11.792C191.718 13.1253 191.328 14.192 190.55 14.992C189.771 15.7813 188.848 16.176 187.782 16.176C186.619 16.176 185.664 15.68 184.918 14.688V18.56H182.982ZM187.334 14.496C188.016 14.496 188.587 14.2453 189.046 13.744C189.515 13.2427 189.75 12.5813 189.75 11.76C189.75 10.96 189.515 10.3093 189.046 9.808C188.576 9.30667 188.006 9.056 187.334 9.056C186.662 9.056 186.08 9.312 185.59 9.824C185.11 10.336 184.87 10.992 184.87 11.792C184.87 12.5813 185.11 13.232 185.59 13.744C186.08 14.2453 186.662 14.496 187.334 14.496ZM200.788 16H198.868V14.96C198.186 15.7707 197.274 16.176 196.132 16.176C195.29 16.176 194.575 15.9467 193.988 15.488C193.412 15.0187 193.124 14.368 193.124 13.536C193.124 12.6293 193.439 11.9413 194.068 11.472C194.698 11.0027 195.524 10.768 196.548 10.768C197.37 10.768 198.148 10.8853 198.884 11.12V10.96C198.884 10.3733 198.703 9.92533 198.34 9.616C197.988 9.30667 197.476 9.152 196.804 9.152C196.036 9.152 195.231 9.328 194.388 9.68L193.86 8.128C194.906 7.65867 195.978 7.424 197.076 7.424C198.303 7.424 199.226 7.73333 199.844 8.352C200.474 8.97067 200.788 9.85067 200.788 10.992V16ZM198.916 12.944V12.464C198.34 12.24 197.695 12.128 196.98 12.128C196.372 12.128 195.898 12.2453 195.556 12.48C195.215 12.7147 195.044 13.0453 195.044 13.472C195.044 13.856 195.199 14.16 195.508 14.384C195.818 14.608 196.207 14.72 196.676 14.72C197.327 14.72 197.86 14.5547 198.276 14.224C198.703 13.8933 198.916 13.4667 198.916 12.944ZM203.091 16V7.552H207.427C208.27 7.552 208.942 7.744 209.443 8.128C209.955 8.50133 210.211 9.01333 210.211 9.664C210.211 10.5493 209.758 11.1947 208.851 11.6C210.014 11.9307 210.595 12.6347 210.595 13.712C210.595 14.4267 210.312 14.9867 209.747 15.392C209.192 15.7973 208.435 16 207.475 16H203.091ZM204.995 14.464H207.187C207.646 14.464 207.998 14.368 208.243 14.176C208.499 13.9733 208.627 13.7067 208.627 13.376C208.627 13.056 208.494 12.8053 208.227 12.624C207.971 12.4427 207.592 12.352 207.091 12.352H204.995V14.464ZM204.995 11.04H206.979C207.374 11.04 207.683 10.944 207.907 10.752C208.131 10.56 208.243 10.3093 208.243 10C208.243 9.712 208.142 9.48267 207.939 9.312C207.736 9.13067 207.427 9.04 207.011 9.04H204.995V11.04ZM219.617 16H217.697V14.96C217.014 15.7707 216.102 16.176 214.961 16.176C214.118 16.176 213.403 15.9467 212.817 15.488C212.241 15.0187 211.953 14.368 211.953 13.536C211.953 12.6293 212.267 11.9413 212.897 11.472C213.526 11.0027 214.353 10.768 215.377 10.768C216.198 10.768 216.977 10.8853 217.713 11.12V10.96C217.713 10.3733 217.531 9.92533 217.169 9.616C216.817 9.30667 216.305 9.152 215.633 9.152C214.865 9.152 214.059 9.328 213.217 9.68L212.689 8.128C213.734 7.65867 214.806 7.424 215.905 7.424C217.131 7.424 218.054 7.73333 218.673 8.352C219.302 8.97067 219.617 9.85067 219.617 10.992V16ZM217.745 12.944V12.464C217.169 12.24 216.523 12.128 215.809 12.128C215.201 12.128 214.726 12.2453 214.385 12.48C214.043 12.7147 213.873 13.0453 213.873 13.472C213.873 13.856 214.027 14.16 214.337 14.384C214.646 14.608 215.035 14.72 215.505 14.72C216.155 14.72 216.689 14.5547 217.105 14.224C217.531 13.8933 217.745 13.4667 217.745 12.944ZM229.596 16.192C228.145 16.192 226.913 15.76 225.9 14.896L226.812 13.616C227.601 14.288 228.487 14.624 229.468 14.624C229.916 14.624 230.295 14.5173 230.604 14.304C230.913 14.08 231.068 13.7973 231.068 13.456C231.068 13.136 230.919 12.88 230.62 12.688C230.321 12.496 229.9 12.4 229.356 12.4H228.316V11.008H229.356C229.804 11.008 230.161 10.9067 230.428 10.704C230.705 10.4907 230.844 10.224 230.844 9.904C230.844 9.616 230.711 9.38667 230.444 9.216C230.188 9.03467 229.857 8.944 229.452 8.944C228.513 8.944 227.713 9.232 227.052 9.808L226.188 8.592C227.116 7.78133 228.263 7.376 229.628 7.376C230.556 7.376 231.313 7.58933 231.9 8.016C232.487 8.44267 232.78 8.98667 232.78 9.648C232.78 10.544 232.337 11.184 231.452 11.568C232.476 11.9307 232.988 12.6133 232.988 13.616C232.988 14.3413 232.673 14.9547 232.044 15.456C231.415 15.9467 230.599 16.192 229.596 16.192ZM242.085 16H240.165V14.96C239.483 15.7707 238.571 16.176 237.429 16.176C236.587 16.176 235.872 15.9467 235.285 15.488C234.709 15.0187 234.421 14.368 234.421 13.536C234.421 12.6293 234.736 11.9413 235.365 11.472C235.995 11.0027 236.821 10.768 237.845 10.768C238.667 10.768 239.445 10.8853 240.181 11.12V10.96C240.181 10.3733 240 9.92533 239.637 9.616C239.285 9.30667 238.773 9.152 238.101 9.152C237.333 9.152 236.528 9.328 235.685 9.68L235.157 8.128C236.203 7.65867 237.275 7.424 238.373 7.424C239.6 7.424 240.523 7.73333 241.141 8.352C241.771 8.97067 242.085 9.85067 242.085 10.992V16ZM240.213 12.944V12.464C239.637 12.24 238.992 12.128 238.277 12.128C237.669 12.128 237.195 12.2453 236.853 12.48C236.512 12.7147 236.341 13.0453 236.341 13.472C236.341 13.856 236.496 14.16 236.805 14.384C237.115 14.608 237.504 14.72 237.973 14.72C238.624 14.72 239.157 14.5547 239.573 14.224C240 13.8933 240.213 13.4667 240.213 12.944ZM255.764 18.032V16H244.388V7.552H246.324V14.336H249.444V7.552H251.364V14.336H254.484V7.552H256.42V14.336H257.62L257.38 18.032H255.764ZM259.232 16V7.552H261.12V13.216C262.89 10.6987 264.224 8.81067 265.12 7.552H266.944V16H265.072V10.368L261.056 16H259.232ZM280.748 18.032V16H269.372V7.552H271.308V14.336H274.428V7.552H276.348V14.336H279.468V7.552H281.404V14.336H282.604L282.364 18.032H280.748ZM288.088 16.192C286.851 16.192 285.816 15.7813 284.984 14.96C284.163 14.1387 283.752 13.0773 283.752 11.776C283.752 10.5493 284.141 9.50933 284.92 8.656C285.699 7.80267 286.685 7.376 287.88 7.376C289.16 7.376 290.152 7.81333 290.856 8.688C291.571 9.552 291.928 10.6293 291.928 11.92C291.928 12.1547 291.917 12.336 291.896 12.464H285.688C285.795 13.136 286.067 13.664 286.504 14.048C286.941 14.4213 287.48 14.608 288.12 14.608C288.952 14.608 289.715 14.272 290.408 13.6L291.544 14.608C290.669 15.664 289.517 16.192 288.088 16.192ZM285.672 11.184H290.008C289.944 10.5333 289.725 10 289.352 9.584C288.979 9.168 288.483 8.96 287.864 8.96C287.277 8.96 286.787 9.168 286.392 9.584C285.997 9.98933 285.757 10.5227 285.672 11.184ZM293.872 16V7.552H295.808V10.976H299.536V7.552H301.472V16H299.536V12.592H295.808V16H293.872ZM303.904 16V7.552H305.84V10.512H307.616C308.618 10.512 309.429 10.736 310.048 11.184C310.666 11.632 310.976 12.2987 310.976 13.184C310.976 14.0587 310.688 14.7467 310.112 15.248C309.536 15.7493 308.752 16 307.76 16H303.904ZM305.84 14.432H307.504C307.994 14.432 308.373 14.3253 308.64 14.112C308.906 13.8987 309.04 13.5893 309.04 13.184C309.04 12.8107 308.901 12.5227 308.624 12.32C308.357 12.1173 307.973 12.016 307.472 12.016H305.84V14.432ZM312.256 16V7.552H314.192V16H312.256ZM316.494 16V13.808H318.622V16H316.494ZM325.94 16V4.8H335.076V16H333.108V6.576H327.908V16H325.94ZM341.748 16.192C340.468 16.192 339.401 15.7653 338.548 14.912C337.694 14.0587 337.268 13.0187 337.268 11.792C337.268 10.5653 337.7 9.52533 338.564 8.672C339.428 7.808 340.5 7.376 341.78 7.376C343.06 7.376 344.126 7.80267 344.98 8.656C345.844 9.50933 346.276 10.5547 346.276 11.792C346.276 13.008 345.844 14.048 344.98 14.912C344.116 15.7653 343.038 16.192 341.748 16.192ZM341.78 14.512C342.548 14.512 343.166 14.2507 343.636 13.728C344.105 13.2053 344.34 12.56 344.34 11.792C344.34 11.0347 344.094 10.3947 343.604 9.872C343.113 9.33867 342.494 9.072 341.748 9.072C340.99 9.072 340.377 9.33333 339.908 9.856C339.438 10.3787 339.204 11.024 339.204 11.792C339.204 12.5387 339.449 13.1787 339.94 13.712C340.43 14.2453 341.044 14.512 341.78 14.512ZM348.183 16.096C347.874 16.096 347.495 16.0587 347.047 15.984L347.191 14.4C347.362 14.4427 347.549 14.464 347.751 14.464C347.975 14.464 348.157 14.432 348.295 14.368C348.445 14.304 348.594 14.144 348.743 13.888C348.903 13.6213 349.026 13.248 349.111 12.768C349.197 12.288 349.266 11.616 349.319 10.752C349.373 9.87733 349.399 8.81067 349.399 7.552H355.783V16H353.847V9.216H351.207C351.207 10.4213 351.159 11.4453 351.063 12.288C350.967 13.1307 350.839 13.7973 350.679 14.288C350.53 14.7787 350.317 15.1627 350.039 15.44C349.773 15.7067 349.501 15.8827 349.223 15.968C348.946 16.0533 348.599 16.096 348.183 16.096ZM358.216 16V7.552H360.104V13.216C361.875 10.6987 363.208 8.81067 364.104 7.552H365.928V16H364.056V10.368L360.04 16H358.216ZM370.165 16V9.216H367.445V7.552H374.837V9.216H372.117V16H370.165ZM376.372 16V7.552H378.26V13.216C380.031 10.6987 381.364 8.81067 382.26 7.552H384.084V16H382.212V10.368L378.196 16H376.372ZM386.513 16V7.552H388.433V11.6L392.113 7.552H394.385L391.105 11.104L394.657 16H392.369L389.809 12.512L388.433 13.968V16H386.513ZM403.085 16H401.165V14.96C400.483 15.7707 399.571 16.176 398.429 16.176C397.587 16.176 396.872 15.9467 396.285 15.488C395.709 15.0187 395.421 14.368 395.421 13.536C395.421 12.6293 395.736 11.9413 396.365 11.472C396.995 11.0027 397.821 10.768 398.845 10.768C399.667 10.768 400.445 10.8853 401.181 11.12V10.96C401.181 10.3733 401 9.92533 400.637 9.616C400.285 9.30667 399.773 9.152 399.101 9.152C398.333 9.152 397.528 9.328 396.685 9.68L396.157 8.128C397.203 7.65867 398.275 7.424 399.373 7.424C400.6 7.424 401.523 7.73333 402.141 8.352C402.771 8.97067 403.085 9.85067 403.085 10.992V16ZM401.213 12.944V12.464C400.637 12.24 399.992 12.128 399.277 12.128C398.669 12.128 398.195 12.2453 397.853 12.48C397.512 12.7147 397.341 13.0453 397.341 13.472C397.341 13.856 397.496 14.16 397.805 14.384C398.115 14.608 398.504 14.72 398.973 14.72C399.624 14.72 400.157 14.5547 400.573 14.224C401 13.8933 401.213 13.4667 401.213 12.944ZM410.185 16V7.552H412.105V11.6L415.785 7.552H418.057L414.777 11.104L418.329 16H416.041L413.481 12.512L412.105 13.968V16H410.185ZM423.685 16.192C422.405 16.192 421.338 15.7653 420.485 14.912C419.632 14.0587 419.205 13.0187 419.205 11.792C419.205 10.5653 419.637 9.52533 420.501 8.672C421.365 7.808 422.437 7.376 423.717 7.376C424.997 7.376 426.064 7.80267 426.917 8.656C427.781 9.50933 428.213 10.5547 428.213 11.792C428.213 13.008 427.781 14.048 426.917 14.912C426.053 15.7653 424.976 16.192 423.685 16.192ZM423.717 14.512C424.485 14.512 425.104 14.2507 425.573 13.728C426.042 13.2053 426.277 12.56 426.277 11.792C426.277 11.0347 426.032 10.3947 425.541 9.872C425.05 9.33867 424.432 9.072 423.685 9.072C422.928 9.072 422.314 9.33333 421.845 9.856C421.376 10.3787 421.141 11.024 421.141 11.792C421.141 12.5387 421.386 13.1787 421.877 13.712C422.368 14.2453 422.981 14.512 423.717 14.512ZM430.185 16V7.552H432.121V10.976H435.849V7.552H437.785V16H435.849V12.592H432.121V16H430.185ZM445.144 18.56V15.392C444.632 15.8827 443.987 16.128 443.208 16.128C442.184 16.128 441.357 15.744 440.728 14.976C440.099 14.1973 439.784 13.1307 439.784 11.776C439.784 10.432 440.099 9.37067 440.728 8.592C441.368 7.81333 442.2 7.424 443.224 7.424C443.96 7.424 444.6 7.70667 445.144 8.272V4.8H447.08V8.272C447.624 7.70667 448.264 7.424 449 7.424C450.024 7.424 450.851 7.81867 451.48 8.608C452.12 9.38667 452.44 10.448 452.44 11.792C452.44 13.1467 452.125 14.208 451.496 14.976C450.867 15.744 450.04 16.128 449.016 16.128C448.237 16.128 447.592 15.8827 447.08 15.392V18.56H445.144ZM443.784 14.512C444.264 14.512 444.717 14.3253 445.144 13.952V9.664C444.717 9.26933 444.264 9.072 443.784 9.072C443.123 9.072 442.616 9.31733 442.264 9.808C441.912 10.2987 441.736 10.9653 441.736 11.808C441.736 12.6613 441.907 13.328 442.248 13.808C442.6 14.2773 443.112 14.512 443.784 14.512ZM448.456 14.512C449.128 14.512 449.635 14.2773 449.976 13.808C450.317 13.328 450.488 12.656 450.488 11.792C450.488 10.96 450.312 10.2987 449.96 9.808C449.619 9.31733 449.117 9.072 448.456 9.072C448.008 9.072 447.549 9.26933 447.08 9.664V13.952C447.507 14.3253 447.965 14.512 448.456 14.512ZM454.435 16V7.552H456.323V13.216C458.093 10.6987 459.427 8.81067 460.323 7.552H462.147V16H460.275V10.368L456.259 16H454.435ZM463.599 18.032V14.336H464.511C465.141 13.0773 465.455 11.1627 465.455 8.592V7.552H471.999V14.336H473.199L472.943 18.032H471.327V16H465.407L465.215 18.032H463.599ZM466.495 14.336H470.063V9.216H467.279V10.336C467.279 11.904 467.018 13.2373 466.495 14.336ZM478.682 16.192C477.444 16.192 476.41 15.7813 475.578 14.96C474.756 14.1387 474.346 13.0773 474.346 11.776C474.346 10.5493 474.735 9.50933 475.514 8.656C476.292 7.80267 477.279 7.376 478.474 7.376C479.754 7.376 480.746 7.81333 481.45 8.688C482.164 9.552 482.522 10.6293 482.522 11.92C482.522 12.1547 482.511 12.336 482.49 12.464H476.282C476.388 13.136 476.66 13.664 477.098 14.048C477.535 14.4213 478.074 14.608 478.714 14.608C479.546 14.608 480.308 14.272 481.002 13.6L482.138 14.608C481.263 15.664 480.111 16.192 478.682 16.192ZM476.266 11.184H480.602C480.538 10.5333 480.319 10 479.946 9.584C479.572 9.168 479.076 8.96 478.458 8.96C477.871 8.96 477.38 9.168 476.986 9.584C476.591 9.98933 476.351 10.5227 476.266 11.184ZM484.466 16V7.552H486.402V10.976H490.13V7.552H492.066V16H490.13V12.592H486.402V16H484.466ZM501.329 18.032V16H494.497V7.552H496.417V14.336H500.065V7.552H501.985V14.336H503.201L502.945 18.032H501.329ZM504.81 16V7.552H506.698V13.216C508.468 10.6987 509.802 8.81067 510.698 7.552H512.522V16H510.65V10.368L506.634 16H504.81ZM522.038 16H520.118V14.96C519.436 15.7707 518.524 16.176 517.382 16.176C516.54 16.176 515.825 15.9467 515.238 15.488C514.662 15.0187 514.374 14.368 514.374 13.536C514.374 12.6293 514.689 11.9413 515.318 11.472C515.948 11.0027 516.774 10.768 517.798 10.768C518.62 10.768 519.398 10.8853 520.134 11.12V10.96C520.134 10.3733 519.953 9.92533 519.59 9.616C519.238 9.30667 518.726 9.152 518.054 9.152C517.286 9.152 516.481 9.328 515.638 9.68L515.11 8.128C516.156 7.65867 517.228 7.424 518.326 7.424C519.553 7.424 520.476 7.73333 521.094 8.352C521.724 8.97067 522.038 9.85067 522.038 10.992V16ZM520.166 12.944V12.464C519.59 12.24 518.945 12.128 518.23 12.128C517.622 12.128 517.148 12.2453 516.806 12.48C516.465 12.7147 516.294 13.0453 516.294 13.472C516.294 13.856 516.449 14.16 516.758 14.384C517.068 14.608 517.457 14.72 517.926 14.72C518.577 14.72 519.11 14.5547 519.526 14.224C519.953 13.8933 520.166 13.4667 520.166 12.944ZM524.277 16.096C523.968 16.096 523.589 16.0587 523.141 15.984L523.285 14.4C523.456 14.4427 523.642 14.464 523.845 14.464C524.069 14.464 524.25 14.432 524.389 14.368C524.538 14.304 524.688 14.144 524.837 13.888C524.997 13.6213 525.12 13.248 525.205 12.768C525.29 12.288 525.36 11.616 525.413 10.752C525.466 9.87733 525.493 8.81067 525.493 7.552H531.877V16H529.941V9.216H527.301C527.301 10.4213 527.253 11.4453 527.157 12.288C527.061 13.1307 526.933 13.7973 526.773 14.288C526.624 14.7787 526.41 15.1627 526.133 15.44C525.866 15.7067 525.594 15.8827 525.317 15.968C525.04 16.0533 524.693 16.096 524.277 16.096ZM534.31 16V7.552H536.246V10.512H538.182C539.184 10.512 539.995 10.736 540.614 11.184C541.232 11.632 541.542 12.2987 541.542 13.184C541.542 14.0587 541.254 14.7467 540.678 15.248C540.102 15.7493 539.318 16 538.326 16H534.31ZM536.246 14.432H538.07C538.56 14.432 538.939 14.3253 539.206 14.112C539.472 13.8987 539.606 13.5893 539.606 13.184C539.606 12.8107 539.467 12.5227 539.19 12.32C538.923 12.1173 538.539 12.016 538.038 12.016H536.246V14.432ZM543.232 16V7.552H545.168V10.976H548.896V7.552H550.832V16H548.896V12.592H545.168V16H543.232ZM557.279 16.192C555.999 16.192 554.932 15.7653 554.079 14.912C553.226 14.0587 552.799 13.0187 552.799 11.792C552.799 10.5653 553.231 9.52533 554.095 8.672C554.959 7.808 556.031 7.376 557.311 7.376C558.591 7.376 559.658 7.80267 560.511 8.656C561.375 9.50933 561.807 10.5547 561.807 11.792C561.807 13.008 561.375 14.048 560.511 14.912C559.647 15.7653 558.57 16.192 557.279 16.192ZM557.311 14.512C558.079 14.512 558.698 14.2507 559.167 13.728C559.636 13.2053 559.871 12.56 559.871 11.792C559.871 11.0347 559.626 10.3947 559.135 9.872C558.644 9.33867 558.026 9.072 557.279 9.072C556.522 9.072 555.908 9.33333 555.439 9.856C554.97 10.3787 554.735 11.024 554.735 11.792C554.735 12.5387 554.98 13.1787 555.471 13.712C555.962 14.2453 556.575 14.512 557.311 14.512ZM567.683 16.192C566.435 16.192 565.395 15.7707 564.562 14.928C563.731 14.0747 563.315 13.04 563.315 11.824V11.792C563.315 10.576 563.731 9.536 564.562 8.672C565.405 7.808 566.451 7.376 567.699 7.376C569.064 7.376 570.189 7.86133 571.075 8.832L569.875 10.128C569.203 9.424 568.472 9.072 567.683 9.072C566.989 9.072 566.408 9.33333 565.939 9.856C565.48 10.3787 565.251 11.0133 565.251 11.76V11.792C565.251 12.56 565.485 13.2053 565.955 13.728C566.435 14.2507 567.043 14.512 567.779 14.512C568.557 14.512 569.288 14.16 569.971 13.456L571.139 14.608C570.68 15.12 570.179 15.5147 569.635 15.792C569.101 16.0587 568.451 16.192 567.683 16.192ZM574.649 16V9.216H571.929V7.552H579.321V9.216H576.601V16H574.649ZM580.857 16V7.552H582.745V13.216C584.515 10.6987 585.849 8.81067 586.745 7.552H588.569V16H586.697V10.368L582.681 16H580.857Z" fill="black"/>
<path d="M324.5 18.768H589.785V19.088H324.5V18.768Z" fill="black"/>
<defs>
<clipPath id="clip0_677_93">
<rect width="13" height="13" fill="white" transform="translate(0 4.5)"/>
</clipPath>
</defs>
</svg>
