<svg width="1920" height="1258" viewBox="0 0 1920 1258" fill="none" xmlns="http://www.w3.org/2000/svg">
<g filter="url(#filter0_d_2_2325)">
<path d="M39.1853 42.0404C198.853 41.1911 332.739 100.267 505.168 179.081C666.722 252.925 899.535 200.787 1053.67 289.08C1302.07 431.375 1338.82 585.456 1549.67 741.081C1718.27 865.519 1834.97 905.188 2006.17 1023.08C2136.58 1112.89 2219.61 1013.36 2269.67 1163.58C2327.66 1337.61 2213.67 1502.08 1979.67 1533.08C1745.67 1564.08 392.668 1513.08 254.668 1504.58C116.668 1496.08 -263.832 1481.58 -320.332 1332.58C-376.832 1183.58 -362.332 363.08 -362.332 363.08C-362.332 363.08 -185.332 42.2622 -58.3317 42.0803C21.4077 41.9661 40.2482 41.9939 39.1853 42.0404Z" fill="white"/>
</g>
<g filter="url(#filter1_d_2_2325)">
<path d="M8.01736 93.9603C167.685 93.111 301.571 152.186 474 231.001C635.554 304.845 868.367 252.707 1022.5 341C1270.9 483.295 1307.65 637.376 1518.5 793.001C1687.1 917.439 1803.8 957.108 1975 1075C2105.42 1164.81 2188.44 1065.28 2238.5 1215.5C2296.49 1389.53 2182.5 1554 1948.5 1585C1714.5 1616 361.5 1565 223.5 1556.5C85.5002 1548 -295 1533.5 -351.5 1384.5C-408 1235.5 -393.5 415 -393.5 415C-393.5 415 -216.5 94.1821 -89.4997 94.0003C-9.76028 93.8861 9.08026 93.9138 8.01736 93.9603Z" fill="#8BAA3C"/>
</g>
<defs>
<filter id="filter0_d_2_2325" x="-388" y="0" width="2728.59" height="1580.97" filterUnits="userSpaceOnUse" color-interpolation-filters="sRGB">
<feFlood flood-opacity="0" result="BackgroundImageFix"/>
<feColorMatrix in="SourceAlpha" type="matrix" values="0 0 0 0 0 0 0 0 0 0 0 0 0 0 0 0 0 0 127 0" result="hardAlpha"/>
<feOffset dx="16" dy="-2"/>
<feGaussianBlur stdDeviation="20"/>
<feComposite in2="hardAlpha" operator="out"/>
<feColorMatrix type="matrix" values="0 0 0 0 0 0 0 0 0 0 0 0 0 0 0 0 0 0 0.11 0"/>
<feBlend mode="normal" in2="BackgroundImageFix" result="effect1_dropShadow_2_2325"/>
<feBlend mode="normal" in="SourceGraphic" in2="effect1_dropShadow_2_2325" result="shape"/>
</filter>
<filter id="filter1_d_2_2325" x="-410.168" y="52.9199" width="2712.59" height="1564.97" filterUnits="userSpaceOnUse" color-interpolation-filters="sRGB">
<feFlood flood-opacity="0" result="BackgroundImageFix"/>
<feColorMatrix in="SourceAlpha" type="matrix" values="0 0 0 0 0 0 0 0 0 0 0 0 0 0 0 0 0 0 127 0" result="hardAlpha"/>
<feOffset dx="17" dy="-9"/>
<feGaussianBlur stdDeviation="16"/>
<feComposite in2="hardAlpha" operator="out"/>
<feColorMatrix type="matrix" values="0 0 0 0 0.160784 0 0 0 0 0.184314 0 0 0 0 0.231373 0 0 0 0.25 0"/>
<feBlend mode="normal" in2="BackgroundImageFix" result="effect1_dropShadow_2_2325"/>
<feBlend mode="normal" in="SourceGraphic" in2="effect1_dropShadow_2_2325" result="shape"/>
</filter>
</defs>
</svg>
