<svg xmlns="http://www.w3.org/2000/svg" width="62" height="54" viewBox="0 0 62 54" fill="none">
  <path fill-rule="evenodd" clip-rule="evenodd" d="M35.1718 20.4519C34.4267 24.1468 32.0318 25.695 28.4528 25.7471C25.1399 25.7991 23.0776 22.3384 22.7317 19.4761C22.3725 16.5227 23.6764 12.7367 26.6966 11.5658C28.3863 10.9153 30.6614 10.9413 32.1649 11.9952C35.0121 13.9987 35.8237 17.2383 35.1718 20.4519ZM28.1069 5.34688C24.6343 5.69816 21.7737 6.98618 19.4454 9.56223C18.5673 10.538 17.0372 12.3334 17.1702 13.6735C17.3964 16.0284 17.9552 20.2437 17.9552 22.4685C17.9552 25.3437 17.1436 24.7062 19.2724 27.1262C22.2394 30.4828 26.3639 32.0701 30.9142 31.4586C37.9126 30.5349 42.8221 23.8476 41.9839 17.0692C41.5449 13.5304 40.3208 11.0584 37.6864 8.58645C35.3049 6.34868 31.3799 5.00862 28.1069 5.34688Z" fill="#F86161"/>
  <path fill-rule="evenodd" clip-rule="evenodd" d="M6.64581 0.676536C7.08487 6.07582 7.63037 12.1777 8.34884 17.5509C8.53511 18.943 9.24027 23.7829 7.93639 24.7326C5.92734 26.1768 5.02261 23.6528 4.41058 22.5989C4.06465 22.716 0.898082 26.6061 0.286056 27.1916C-0.126397 27.5819 -0.0332623 27.5298 0.192921 27.751C0.43241 27.9852 0.818253 28.5967 1.64316 29.2602C3.59898 30.8214 5.40845 31.537 7.963 31.55C12.3536 31.563 15.8129 29.065 16.5846 24.7326C16.6777 24.1732 16.6644 23.7308 16.7709 23.2234C17.3297 20.6994 14.9747 3.68192 14.5888 0L6.64581 0.676536Z" fill="#F86161"/>
  <path fill-rule="evenodd" clip-rule="evenodd" d="M40.4129 30.067C42.4352 30.4703 45.4022 31.2509 47.3447 31.407L47.7705 29.3644C47.8902 28.5187 48.4091 26.2159 48.5954 25.2532C48.7684 24.3294 49.7396 19.2814 49.8727 19.0733C50.0856 18.735 51.2564 17.538 51.6688 17.1477C52.9461 15.9378 61.1819 7.38999 61.9402 6.10197C61.5145 6.10197 61.7141 6.08896 61.4347 6.0109C60.0642 5.78972 53.8642 4.47568 53.6114 4.61879C52.9062 5.5165 47.8503 12.6071 47.4512 12.6852C47.1452 11.4492 45.2559 3.39582 44.87 2.94046C44.737 2.79735 44.564 2.78434 44.3911 2.77133L37.3128 1.45728C36.9802 1.36621 37.0866 1.36621 36.6875 1.36621C36.754 1.74351 37.1532 2.70627 37.3128 3.09658C37.9382 4.59277 38.7232 6.75248 39.2953 8.2877C39.4283 8.65199 40.7322 10.1482 41.291 11.0719C41.9429 12.1518 42.3953 13.2576 42.7279 14.4546C43.0473 15.7816 43.3932 17.2518 43.3267 18.6049C43.2601 20.1271 42.9807 21.207 42.6614 22.6901C42.249 24.2514 41.464 25.4093 41.291 26.0728C41.0382 26.8274 40.6125 29.5856 40.4129 30.067Z" fill="#F86161"/>
  <path fill-rule="evenodd" clip-rule="evenodd" d="M9.81353 49.5954V39.2522C11.929 39.2522 13.9114 39.2912 15.2819 40.9826C16.3729 42.3226 16.5458 46.4469 15.3484 47.826C15.0424 48.1773 15.2153 48.0862 14.6299 48.5806C14.2441 48.9188 13.672 49.114 13.193 49.2831C12.102 49.6344 10.9311 49.5954 9.81353 49.5954ZM4.65122 34.9588L4.61131 39.2392C4.61131 43.5846 4.53148 48.2943 4.61131 52.5617C4.63792 54.188 3.83962 53.9668 7.72466 53.9668C9.49422 53.9668 11.5033 54.0709 13.2462 53.8107C15.4814 53.4855 16.9849 53.0431 18.7544 51.4298C20.3111 50.0117 21.3888 47.1885 21.4154 45.1459C21.4553 42.5178 21.0828 40.332 19.4463 38.1723C18.1158 36.442 15.7209 35.284 13.5522 35.0498C11.3702 34.8157 9.13498 34.8417 6.95297 34.8417L4.65122 34.9588Z" fill="black"/>
  <path fill-rule="evenodd" clip-rule="evenodd" d="M24.2207 34.9196V53.9798C25.4847 53.9798 35.2372 54.0448 35.5964 53.9407C35.7029 53.6025 35.6762 49.9856 35.5698 49.5953H29.2367V46.5509H35.2106C35.3968 45.7963 35.3037 43.2983 35.2638 42.2835H34.5586H29.2367C29.2367 41.7631 29.1568 39.5383 29.2766 39.2261C29.6225 39.109 34.7449 39.187 35.5698 39.187C35.7028 38.6796 35.7028 35.375 35.5698 34.8676C34.1861 34.8676 24.6731 34.7505 24.2207 34.9196Z" fill="black"/>
  <path fill-rule="evenodd" clip-rule="evenodd" d="M46.1466 53.9797H50.1247C50.3243 53.069 55.6463 40.527 56.3647 38.5495L57.8017 34.9326C57.2429 34.8025 53.584 34.8805 52.7192 34.8805C52.2668 34.8805 52.32 35.1017 52.1338 35.5961C52.1205 35.6351 52.0673 35.7652 52.0539 35.8043C50.8033 39.5643 49.4329 44.1049 48.0891 47.7087C46.9582 43.4283 45.335 39.1479 43.8581 34.9586C43.3924 34.7634 39.2812 34.8805 38.4297 34.8805C38.4164 35.2839 45.4547 52.2753 46.1466 53.9797Z" fill="black"/>
</svg>