<svg width="66" height="66" viewBox="0 0 66 66" fill="none" xmlns="http://www.w3.org/2000/svg">
<rect width="66" height="66" rx="14" fill="#F3F8EB"/>
<path d="M33 47H47M40 20.0161C40.6188 19.3655 41.4582 19 42.3333 19C42.7667 19 43.1958 19.0897 43.5961 19.2641C43.9965 19.4384 44.3602 19.694 44.6667 20.0161C44.9731 20.3382 45.2161 20.7207 45.382 21.1416C45.5478 21.5625 45.6332 22.0136 45.6332 22.4692C45.6332 22.9248 45.5478 23.3759 45.382 23.7968C45.2161 24.2177 44.9731 24.6001 44.6667 24.9223L25.2222 45.3646L19 47L20.5556 40.4584L40 20.0161Z" stroke="#83AD32" stroke-width="3" stroke-linecap="round" stroke-linejoin="round"/>
</svg>
