<svg width="66" height="66" viewBox="0 0 66 66" fill="none" xmlns="http://www.w3.org/2000/svg">
<rect width="66" height="66" rx="14" fill="#F3F8EB"/>
<path d="M43 18C41.6739 18 40.4021 18.5268 39.4645 19.4645C38.5268 20.4021 38 21.6739 38 23V43C38 44.3261 38.5268 45.5979 39.4645 46.5355C40.4021 47.4732 41.6739 48 43 48C44.3261 48 45.5979 47.4732 46.5355 46.5355C47.4732 45.5979 48 44.3261 48 43C48 41.6739 47.4732 40.4021 46.5355 39.4645C45.5979 38.5268 44.3261 38 43 38H23C21.6739 38 20.4021 38.5268 19.4645 39.4645C18.5268 40.4021 18 41.6739 18 43C18 44.3261 18.5268 45.5979 19.4645 46.5355C20.4021 47.4732 21.6739 48 23 48C24.3261 48 25.5979 47.4732 26.5355 46.5355C27.4732 45.5979 28 44.3261 28 43V23C28 21.6739 27.4732 20.4021 26.5355 19.4645C25.5979 18.5268 24.3261 18 23 18C21.6739 18 20.4021 18.5268 19.4645 19.4645C18.5268 20.4021 18 21.6739 18 23C18 24.3261 18.5268 25.5979 19.4645 26.5355C20.4021 27.4732 21.6739 28 23 28H43C44.3261 28 45.5979 27.4732 46.5355 26.5355C47.4732 25.5979 48 24.3261 48 23C48 21.6739 47.4732 20.4021 46.5355 19.4645C45.5979 18.5268 44.3261 18 43 18Z" stroke="#83AD32" stroke-width="3" stroke-linecap="round" stroke-linejoin="round"/>
</svg>
