<svg width="50" height="50" viewBox="0 0 50 50" fill="none" xmlns="http://www.w3.org/2000/svg">
<rect width="50" height="50" rx="8" fill="white"/>
<path d="M37 37V34.2222C37 32.7488 36.3942 31.3357 35.3159 30.2939C34.2375 29.252 32.775 28.6667 31.25 28.6667H19.75C18.225 28.6667 16.7625 29.252 15.6841 30.2939C14.6058 31.3357 14 32.7488 14 34.2222V37" fill="white"/>
<path d="M25.5 23.1111C28.6756 23.1111 31.25 20.6238 31.25 17.5556C31.25 14.4873 28.6756 12 25.5 12C22.3244 12 19.75 14.4873 19.75 17.5556C19.75 20.6238 22.3244 23.1111 25.5 23.1111Z" fill="white"/>
<path d="M37 37V34.2222C37 32.7488 36.3942 31.3357 35.3159 30.2939C34.2375 29.252 32.775 28.6667 31.25 28.6667H19.75C18.225 28.6667 16.7625 29.252 15.6841 30.2939C14.6058 31.3357 14 32.7488 14 34.2222V37M31.25 17.5556C31.25 20.6238 28.6756 23.1111 25.5 23.1111C22.3244 23.1111 19.75 20.6238 19.75 17.5556C19.75 14.4873 22.3244 12 25.5 12C28.6756 12 31.25 14.4873 31.25 17.5556Z" stroke="#83AD32" stroke-width="2" stroke-linecap="round" stroke-linejoin="round"/>
</svg>
