<svg width="50" height="50" viewBox="0 0 50 50" fill="none" xmlns="http://www.w3.org/2000/svg">
<rect width="50" height="50" rx="8" fill="white"/>
<path d="M38 24.9086L26.1806 36.2352C24.7326 37.6228 22.7687 38.4023 20.721 38.4023C18.6733 38.4023 16.7094 37.6228 15.2614 36.2352C13.8135 34.8476 13 32.9656 13 31.0033C13 29.0409 13.8135 27.1589 15.2614 25.7714L27.0809 14.4448C28.0462 13.5197 29.3554 13 30.7206 13C32.0857 13 33.395 13.5197 34.3603 14.4448C35.3256 15.3698 35.8679 16.6245 35.8679 17.9327C35.8679 19.2409 35.3256 20.4956 34.3603 21.4207L22.528 32.7473C22.0453 33.2098 21.3907 33.4696 20.7081 33.4696C20.0256 33.4696 19.3709 33.2098 18.8883 32.7473C18.4056 32.2847 18.1345 31.6574 18.1345 31.0033C18.1345 30.3492 18.4056 29.7218 18.8883 29.2593L29.8074 18.8078" fill="white"/>
<path d="M38 24.9086L26.1806 36.2352C24.7326 37.6228 22.7687 38.4023 20.721 38.4023C18.6733 38.4023 16.7094 37.6228 15.2614 36.2352C13.8135 34.8476 13 32.9656 13 31.0033C13 29.0409 13.8135 27.1589 15.2614 25.7714L27.0809 14.4448C28.0462 13.5197 29.3554 13 30.7206 13C32.0857 13 33.395 13.5197 34.3603 14.4448C35.3256 15.3698 35.8679 16.6245 35.8679 17.9327C35.8679 19.2409 35.3256 20.4956 34.3603 21.4207L22.528 32.7473C22.0453 33.2098 21.3907 33.4696 20.7081 33.4696C20.0256 33.4696 19.3709 33.2098 18.8883 32.7473C18.4056 32.2847 18.1345 31.6574 18.1345 31.0033C18.1345 30.3492 18.4056 29.7218 18.8883 29.2593L29.8074 18.8078" stroke="#83AD32" stroke-width="2" stroke-linecap="round" stroke-linejoin="round"/>
</svg>
