<svg width="50" height="50" viewBox="0 0 50 50" fill="none" xmlns="http://www.w3.org/2000/svg">
<rect width="50" height="50" rx="8" fill="white"/>
<path d="M20.2632 23.2222L23.8947 27.0556L36 14.2778" fill="white"/>
<path d="M34.7895 24.5V33.4444C34.7895 34.1222 34.5344 34.7722 34.0804 35.2515C33.6263 35.7308 33.0105 36 32.3684 36H15.4211C14.7789 36 14.1631 35.7308 13.7091 35.2515C13.2551 34.7722 13 34.1222 13 33.4444V15.5556C13 14.8778 13.2551 14.2278 13.7091 13.7485C14.1631 13.2692 14.7789 13 15.4211 13H28.7368" fill="white"/>
<path d="M20.2632 23.2222L23.8947 27.0556L36 14.2778M34.7895 24.5V33.4444C34.7895 34.1222 34.5344 34.7722 34.0804 35.2515C33.6263 35.7308 33.0105 36 32.3684 36H15.4211C14.7789 36 14.1631 35.7308 13.7091 35.2515C13.2551 34.7722 13 34.1222 13 33.4444V15.5556C13 14.8778 13.2551 14.2278 13.7091 13.7485C14.1631 13.2692 14.7789 13 15.4211 13H28.7368" stroke="#83AD32" stroke-width="2" stroke-linecap="round" stroke-linejoin="round"/>
</svg>
