<svg width="459" height="261" viewBox="0 0 459 261" fill="none" xmlns="http://www.w3.org/2000/svg">
<path fill-rule="evenodd" clip-rule="evenodd" d="M197.556 2C196.236 2 194.971 2.52187 194.039 3.44929L180.329 17.0944C178.837 18.5788 178 20.5912 178 22.6884C178 24.7857 178.837 26.7981 180.329 28.2825C181.82 29.7671 183.845 30.6021 185.956 30.6021C188.068 30.6021 190.092 29.7671 191.584 28.2825L205.295 14.6374C205.686 14.2478 206.319 14.2494 206.709 14.6408C207.098 15.0323 207.097 15.6654 206.705 16.055L192.995 29.7001C191.127 31.5587 188.595 32.6021 185.956 32.6021C183.317 32.6021 180.785 31.5587 178.918 29.7001C177.05 27.8413 176 25.3192 176 22.6884C176 20.0576 177.05 17.5356 178.918 15.6768L192.628 2.03169C193.936 0.730273 195.709 0 197.556 0C199.403 0 201.176 0.730273 202.483 2.03169C203.791 3.33327 204.527 5.09961 204.527 6.9424C204.527 8.78519 203.791 10.5515 202.483 11.8531L188.758 25.4982C188.758 25.4983 188.758 25.4981 188.758 25.4982C188.01 26.2422 186.997 26.6596 185.941 26.6596C184.886 26.6596 183.873 26.2424 183.125 25.4982C182.377 24.7538 181.956 23.7432 181.956 22.6884C181.956 21.6337 182.377 20.6231 183.125 19.8787L195.792 7.28738C196.183 6.89802 196.816 6.89991 197.206 7.2916C197.595 7.68329 197.593 8.31645 197.202 8.7058L184.536 21.2963C184.536 21.2963 184.536 21.2963 184.536 21.2963C184.164 21.6663 183.956 22.1672 183.956 22.6884C183.956 23.2097 184.164 23.7106 184.536 24.0806C184.908 24.4508 185.413 24.6596 185.941 24.6596C186.47 24.6596 186.975 24.4508 187.347 24.0806L201.073 10.4355C201.072 10.4356 201.073 10.4354 201.073 10.4355C202.004 9.50831 202.527 8.25148 202.527 6.9424C202.527 5.63314 202.004 4.37654 201.073 3.44929C200.141 2.52187 198.876 2 197.556 2Z" fill="#83AD32"/>
<path fill-rule="evenodd" clip-rule="evenodd" d="M330.22 61.4662C330.119 60.9783 329.393 60.2952 328.159 60.5508L302.047 65.959C300.813 66.2145 300.418 67.1301 300.519 67.6179L301.661 73.1299C301.762 73.6178 302.488 74.3009 303.722 74.0453L329.834 68.6372C331.068 68.3816 331.463 67.466 331.362 66.9782L330.22 61.4662ZM327.55 57.6131C329.921 57.122 332.629 58.3014 333.158 60.8577L334.3 66.3698C334.829 68.9261 332.813 71.0837 330.442 71.5748L304.331 76.983C301.96 77.4741 299.252 76.2947 298.723 73.7384L297.581 68.2264C297.052 65.67 299.068 63.5124 301.439 63.0213L327.55 57.6131ZM307.633 69.0187C307.801 69.8299 307.28 70.6237 306.469 70.7917L306.453 70.795C305.642 70.9629 304.848 70.4415 304.68 69.6303C304.512 68.8191 305.033 68.0253 305.845 67.8573L305.86 67.854C306.672 67.686 307.465 68.2074 307.633 69.0187ZM333.645 78.0022C333.544 77.5144 332.818 76.8312 331.584 77.0868L305.472 82.495C304.238 82.7506 303.843 83.6661 303.944 84.154L305.086 89.666C305.187 90.1538 305.913 90.837 307.147 90.5814L333.259 85.1732C334.493 84.9176 334.888 84.0021 334.787 83.5142L333.645 78.0022ZM330.975 74.1492C333.346 73.6581 336.054 74.8374 336.583 77.3938L337.725 82.9058C338.254 85.4621 336.238 87.6198 333.867 88.1109L307.756 93.519C305.385 94.0101 302.677 92.8308 302.148 90.2744L301.006 84.7624C300.477 82.2061 302.493 80.0485 304.864 79.5573L330.975 74.1492ZM311.058 85.5545C311.226 86.3657 310.705 87.1596 309.894 87.3277L309.878 87.331C309.067 87.4991 308.273 86.9777 308.105 86.1665C307.937 85.3553 308.458 84.5615 309.269 84.3934L309.285 84.3901C310.096 84.222 310.89 84.7433 311.058 85.5545Z" fill="#83AD32"/>
<path fill-rule="evenodd" clip-rule="evenodd" d="M330.222 230C329.655 230 329.097 230.24 328.674 230.692C328.249 231.146 328 231.775 328 232.444V257.467L332.714 252.428C332.903 252.226 333.168 252.111 333.444 252.111H352.778C353.345 252.111 353.903 251.871 354.326 251.419C354.751 250.965 355 250.336 355 249.667V232.444C355 231.775 354.751 231.146 354.326 230.692C353.903 230.24 353.345 230 352.778 230H330.222ZM327.213 229.326C327.999 228.486 329.08 228 330.222 228H352.778C353.92 228 355.001 228.486 355.787 229.326C356.57 230.164 357 231.286 357 232.444V249.667C357 250.825 356.57 251.948 355.787 252.785C355.001 253.625 353.92 254.111 352.778 254.111H333.878L327.73 260.683C327.45 260.983 327.015 261.081 326.633 260.93C326.251 260.779 326 260.411 326 260V232.444C326 231.286 326.43 230.164 327.213 229.326Z" fill="#83AD32"/>
<path fill-rule="evenodd" clip-rule="evenodd" d="M4.45833 49C4.02802 49 3.62167 49.1657 3.32706 49.4508C3.03357 49.7349 2.875 50.113 2.875 50.5V68C2.875 68.387 3.03357 68.7651 3.32706 69.0492C3.62167 69.3343 4.02802 69.5 4.45833 69.5H22.5417C22.972 69.5 23.3783 69.3343 23.6729 69.0492C23.9664 68.7651 24.125 68.387 24.125 68V59.25C24.125 58.6977 24.5727 58.25 25.125 58.25C25.6773 58.25 26.125 58.6977 26.125 59.25V68C26.125 68.939 25.7392 69.8327 25.0638 70.4864C24.3894 71.139 23.4816 71.5 22.5417 71.5H4.45833C3.51836 71.5 2.61055 71.139 1.93622 70.4864C1.26077 69.8327 0.875 68.939 0.875 68V50.5C0.875 49.561 1.26077 48.6673 1.93622 48.0136C2.61055 47.361 3.51836 47 4.45833 47H18.6667C19.219 47 19.6667 47.4477 19.6667 48C19.6667 48.5523 19.219 49 18.6667 49H4.45833ZM27.1353 48.5546C27.5193 48.9515 27.509 49.5845 27.1121 49.9686L14.1954 62.4686C13.8077 62.8438 13.1923 62.8438 12.8046 62.4686L8.92958 58.7186C8.53271 58.3345 8.52233 57.7015 8.9064 57.3046C9.29047 56.9077 9.92355 56.8973 10.3204 57.2814L13.5 60.3584L25.7212 48.5314C26.1181 48.1473 26.7512 48.1577 27.1353 48.5546Z" fill="#83AD32"/>
<path fill-rule="evenodd" clip-rule="evenodd" d="M425.899 137.991C426.727 138.237 427.304 138.988 427.327 139.853L428.461 181.091L438.472 166.645C438.965 165.934 439.858 165.62 440.687 165.867L450.112 168.672C451.17 168.987 451.773 170.1 451.458 171.159C451.143 172.218 450.029 172.821 448.971 172.505L440.935 170.114L428.274 188.385C427.781 189.095 426.888 189.409 426.059 189.162C425.231 188.916 424.654 188.165 424.63 187.3L423.497 146.062L413.486 160.508C412.993 161.219 412.1 161.533 411.271 161.286L401.846 158.481C400.788 158.166 400.185 157.053 400.5 155.994C400.815 154.935 401.929 154.332 402.987 154.647L411.023 157.039L423.684 138.768C424.177 138.058 425.07 137.744 425.899 137.991Z" fill="#83AD32"/>
</svg>
