<svg width="617" height="247" viewBox="0 0 617 247" fill="none" xmlns="http://www.w3.org/2000/svg">
<path d="M98.8268 33.263L98.1702 19.6519C93.3 16.6443 88.1835 14.4012 82.8208 12.9229C77.5128 11.4445 71.9586 10.7053 66.1582 10.7053C51.3834 10.7053 39.5362 14.8855 30.6166 23.2459C21.7518 31.6062 17.3193 42.7959 17.3193 56.8148C17.3193 66.6535 19.5629 75.4217 24.0501 83.1193C28.5919 90.817 35.0217 96.9088 43.3393 101.395C51.657 105.881 60.4398 108.124 69.6877 108.124C77.0204 108.124 84.2709 107.334 91.4394 105.753C96.8021 104.581 102.192 102.134 107.61 98.4127L109.333 99.942C108.184 102.287 107.117 104.657 106.132 107.053C99.7297 110.01 93.2726 112.253 86.7608 113.782C80.3036 115.261 73.7918 116 67.2252 116C53.7638 116 41.9166 113.579 31.6837 108.736C21.5055 103.893 13.6803 97.2147 8.20821 88.7014C2.73607 80.1371 0 70.4768 0 59.7205C0 48.9642 2.76343 39.3549 8.29029 30.8925C13.8172 22.3793 21.6149 15.8031 31.6837 11.1641C41.8071 6.47418 54.2289 4.1292 68.949 4.1292C76.6647 4.1292 85.6937 5.30169 96.036 7.64667C101.18 8.76818 105.366 9.60932 108.595 10.1701C106.132 15.6247 104.709 23.3223 104.326 33.263H98.8268Z" fill="white"/>
<path d="M145.121 0.917601C144.191 15.8541 143.726 29.3632 143.726 41.445V80.7488C143.726 96.3481 144.081 105.193 144.793 107.283C145.176 108.353 146.982 109.042 150.21 109.347L157.187 110.036V114.471C151.223 114.114 145.532 113.935 140.114 113.935C134.095 113.935 126.215 114.114 116.474 114.471V110.036L123.534 109.5C126.653 109.245 128.431 108.506 128.869 107.283C129.58 105.295 129.936 96.2461 129.936 80.1371V41.0626L129.854 26.381L129.608 16.3639C129.608 13.866 129.307 12.3366 128.705 11.7759C127.829 10.9602 125.996 10.5524 123.205 10.5524H116.474V5.9644C127.857 4.99583 136.94 3.00769 143.726 0L145.121 0.917601Z" fill="white"/>
<path d="M167.283 77.7666C167.283 70.7317 169.034 64.385 172.537 58.7264C176.039 53.0169 180.936 48.5564 187.229 45.3448C193.577 42.1332 200.773 40.5274 208.817 40.5274C220.472 40.5274 229.802 43.739 236.807 50.1622C243.811 56.5854 247.313 65.1496 247.313 75.855C247.313 88.4975 242.744 98.5401 233.606 105.983C225.452 112.661 215.684 116 204.302 116C193.358 116 184.438 112.584 177.544 105.753C170.703 98.8715 167.283 89.5425 167.283 77.7666ZM182.715 72.3375C182.715 82.8389 185.013 91.8365 189.61 99.3303C194.261 106.773 200.937 110.494 209.638 110.494C216.259 110.494 221.594 108.149 225.644 103.459C229.748 98.7695 231.8 91.6581 231.8 82.1252C231.8 74.4276 230.596 67.775 228.188 62.1674C225.78 56.5089 222.607 52.4052 218.667 49.8563C214.727 47.2564 210.322 45.9565 205.451 45.9565C201.128 45.9565 197.216 46.9761 193.714 49.0152C190.266 51.0543 187.722 53.7816 186.08 57.1971C183.837 61.8361 182.715 66.8829 182.715 72.3375Z" fill="white"/>
<path d="M312.486 46.4918V42.0567C318.123 42.4135 323.157 42.592 327.59 42.592C332.733 42.592 338.233 42.4135 344.088 42.0567V46.4918H341.544C340.285 46.4918 339.054 46.7212 337.85 47.18C336.974 47.5368 336.263 47.9956 335.716 48.5564C335.169 49.1171 333.199 52.6601 329.806 59.1852C323.622 71.0631 318.889 80.443 315.606 87.325C312.322 94.207 308.164 103.485 303.129 115.159H294.675C287.451 98.3872 280.064 82.0743 272.513 66.2202C269.722 60.4087 268.025 56.6873 267.423 55.056C266.22 51.7425 264.852 49.4995 263.319 48.327C261.842 47.1035 259.927 46.4918 257.574 46.4918H254.865V42.0567C262.909 42.4645 269.612 42.6684 274.975 42.6684C280.721 42.6684 287.014 42.4645 293.854 42.0567V46.4918H290.242C286.904 46.4918 284.551 46.8231 283.183 47.4858C282.253 47.9956 281.788 48.7603 281.788 49.7798C281.788 50.6465 282.28 52.4052 283.265 55.056C284.25 57.7069 290.872 73.1277 303.129 101.318L317.822 68.2848C321.16 60.6381 323.212 55.3364 323.978 52.3797C324.197 51.5641 324.306 50.8759 324.306 50.3151C324.306 49.3465 323.951 48.6328 323.239 48.174C322.528 47.7152 320.695 47.3329 317.74 47.027L312.486 46.4918Z" fill="white"/>
<path d="M368.466 77.4608C368.74 87.5034 371.504 95.1246 376.757 100.324C382.01 105.524 388.905 108.124 397.441 108.124C401.272 108.124 405.075 107.538 408.851 106.365C412.627 105.193 416.375 103.434 420.096 101.089L421.491 102.236L418.865 108.659C414.323 111.106 409.644 112.941 404.829 114.165C400.013 115.388 395.061 116 389.972 116C378.864 116 369.889 112.737 363.049 106.212C356.264 99.6361 352.871 90.7405 352.871 79.5254C352.871 70.9611 354.786 63.5438 358.617 57.2736C361.134 53.1444 365.785 49.321 372.571 45.8036C379.356 42.2861 385.95 40.5274 392.352 40.5274C402.038 40.5274 409.699 43.1782 415.335 48.4799C421.026 53.7816 423.872 61.1989 423.872 70.7317L423.708 75.2432C420.096 76.0589 416.649 76.5942 413.365 76.849C407.51 77.2569 399.384 77.4608 388.987 77.4608H368.466ZM368.713 71.7258C377.195 72.0826 386.552 72.261 396.785 72.261C400.889 72.261 404.856 72.0826 408.687 71.7258V67.4436C408.687 62.9576 407.729 58.7009 405.814 54.6737C404.61 52.1758 402.503 50.1112 399.494 48.4799C396.484 46.7976 393.009 45.9565 389.069 45.9565C382.94 45.9565 378.043 48.0466 374.376 52.2268C370.71 56.4069 368.822 62.9066 368.713 71.7258Z" fill="white"/>
<path d="M459.988 57.8088C462.177 55.8717 464.557 53.3228 467.129 50.1622C470.194 46.4408 473.039 43.8919 475.666 42.5155C478.292 41.1391 481.056 40.4509 483.956 40.4509C486.966 40.4509 489.264 40.7822 490.851 41.445C491.617 41.7508 492 42.2351 492 42.8978L491.918 43.6625C491.097 47.7917 490.632 53.5777 490.523 61.0204H486.829C485.57 58.4206 484.065 56.5854 482.314 55.5148C480.618 54.4443 478.566 53.909 476.158 53.909C472.93 53.909 469.92 54.9286 467.129 56.9677C464.393 59.0068 462.56 61.8616 461.63 65.532C460.699 69.2024 460.234 76.4157 460.234 87.1721C460.234 94.258 460.535 100.222 461.137 105.065C461.356 106.849 461.903 107.971 462.779 108.43C464.858 109.5 467.923 110.036 471.972 110.036H476.897V114.471C468.525 114.114 460.59 113.935 453.093 113.935C445.815 113.935 438.619 114.114 431.506 114.471V110.036L439.385 109.424C442.176 109.22 443.927 108.736 444.639 107.971C445.405 107.206 445.897 104.734 446.116 100.554C446.499 93.2129 446.691 84.4957 446.691 74.4021C446.691 62.1165 446.171 54.9031 445.131 52.762C444.42 51.3856 442.176 50.6974 438.4 50.6974H431.506V46.2624C436.814 45.7016 441.547 44.9879 445.706 44.1213C449.865 43.2037 453.558 42.0567 456.787 40.6803C457.553 40.3234 458.182 40.145 458.675 40.145C459.277 40.145 459.687 40.298 459.906 40.6038C460.125 40.9097 460.234 41.5979 460.234 42.6684L459.988 57.8088Z" fill="white"/>
<path d="M98.8268 33.263L98.1702 19.6519C93.3 16.6443 88.1835 14.4012 82.8208 12.9229C77.5128 11.4445 71.9586 10.7053 66.1582 10.7053C51.3834 10.7053 39.5362 14.8855 30.6166 23.2459C21.7518 31.6062 17.3193 42.7959 17.3193 56.8148C17.3193 66.6535 19.5629 75.4217 24.0501 83.1193C28.5919 90.817 35.0217 96.9088 43.3393 101.395C51.657 105.881 60.4398 108.124 69.6877 108.124C77.0204 108.124 84.2709 107.334 91.4394 105.753C96.8021 104.581 102.192 102.134 107.61 98.4127L109.333 99.942C108.184 102.287 107.117 104.657 106.132 107.053C99.7297 110.01 93.2726 112.253 86.7608 113.782C80.3036 115.261 73.7918 116 67.2252 116C53.7638 116 41.9166 113.579 31.6837 108.736C21.5055 103.893 13.6803 97.2147 8.20821 88.7014C2.73607 80.1371 0 70.4768 0 59.7205C0 48.9642 2.76343 39.3549 8.29029 30.8925C13.8172 22.3793 21.6149 15.8031 31.6837 11.1641C41.8071 6.47418 54.2289 4.1292 68.949 4.1292C76.6647 4.1292 85.6937 5.30169 96.036 7.64667C101.18 8.76818 105.366 9.60932 108.595 10.1701C106.132 15.6247 104.709 23.3223 104.326 33.263H98.8268Z" fill="white"/>
<path d="M145.121 0.917601C144.191 15.8541 143.726 29.3632 143.726 41.445V80.7488C143.726 96.3481 144.081 105.193 144.793 107.283C145.176 108.353 146.982 109.042 150.21 109.347L157.187 110.036V114.471C151.223 114.114 145.532 113.935 140.114 113.935C134.095 113.935 126.215 114.114 116.474 114.471V110.036L123.534 109.5C126.653 109.245 128.431 108.506 128.869 107.283C129.58 105.295 129.936 96.2461 129.936 80.1371V41.0626L129.854 26.381L129.608 16.3639C129.608 13.866 129.307 12.3366 128.705 11.7759C127.829 10.9602 125.996 10.5524 123.205 10.5524H116.474V5.9644C127.857 4.99583 136.94 3.00769 143.726 0L145.121 0.917601Z" fill="white"/>
<path d="M167.283 77.7666C167.283 70.7317 169.034 64.385 172.537 58.7264C176.039 53.0169 180.936 48.5564 187.229 45.3448C193.577 42.1332 200.773 40.5274 208.817 40.5274C220.472 40.5274 229.802 43.739 236.807 50.1622C243.811 56.5854 247.313 65.1496 247.313 75.855C247.313 88.4975 242.744 98.5401 233.606 105.983C225.452 112.661 215.684 116 204.302 116C193.358 116 184.438 112.584 177.544 105.753C170.703 98.8715 167.283 89.5425 167.283 77.7666ZM182.715 72.3375C182.715 82.8389 185.013 91.8365 189.61 99.3303C194.261 106.773 200.937 110.494 209.638 110.494C216.259 110.494 221.594 108.149 225.644 103.459C229.748 98.7695 231.8 91.6581 231.8 82.1252C231.8 74.4276 230.596 67.775 228.188 62.1674C225.78 56.5089 222.607 52.4052 218.667 49.8563C214.727 47.2564 210.322 45.9565 205.451 45.9565C201.128 45.9565 197.216 46.9761 193.714 49.0152C190.266 51.0543 187.722 53.7816 186.08 57.1971C183.837 61.8361 182.715 66.8829 182.715 72.3375Z" fill="white"/>
<path d="M312.486 46.4918V42.0567C318.123 42.4135 323.157 42.592 327.59 42.592C332.733 42.592 338.233 42.4135 344.088 42.0567V46.4918H341.544C340.285 46.4918 339.054 46.7212 337.85 47.18C336.974 47.5368 336.263 47.9956 335.716 48.5564C335.169 49.1171 333.199 52.6601 329.806 59.1852C323.622 71.0631 318.889 80.443 315.606 87.325C312.322 94.207 308.164 103.485 303.129 115.159H294.675C287.451 98.3872 280.064 82.0743 272.513 66.2202C269.722 60.4087 268.025 56.6873 267.423 55.056C266.22 51.7425 264.852 49.4995 263.319 48.327C261.842 47.1035 259.927 46.4918 257.574 46.4918H254.865V42.0567C262.909 42.4645 269.612 42.6684 274.975 42.6684C280.721 42.6684 287.014 42.4645 293.854 42.0567V46.4918H290.242C286.904 46.4918 284.551 46.8231 283.183 47.4858C282.253 47.9956 281.788 48.7603 281.788 49.7798C281.788 50.6465 282.28 52.4052 283.265 55.056C284.25 57.7069 290.872 73.1277 303.129 101.318L317.822 68.2848C321.16 60.6381 323.212 55.3364 323.978 52.3797C324.197 51.5641 324.306 50.8759 324.306 50.3151C324.306 49.3465 323.951 48.6328 323.239 48.174C322.528 47.7152 320.695 47.3329 317.74 47.027L312.486 46.4918Z" fill="white"/>
<path d="M368.466 77.4608C368.74 87.5034 371.504 95.1246 376.757 100.324C382.01 105.524 388.905 108.124 397.441 108.124C401.272 108.124 405.075 107.538 408.851 106.365C412.627 105.193 416.375 103.434 420.096 101.089L421.491 102.236L418.865 108.659C414.323 111.106 409.644 112.941 404.829 114.165C400.013 115.388 395.061 116 389.972 116C378.864 116 369.889 112.737 363.049 106.212C356.264 99.6361 352.871 90.7405 352.871 79.5254C352.871 70.9611 354.786 63.5438 358.617 57.2736C361.134 53.1444 365.785 49.321 372.571 45.8036C379.356 42.2861 385.95 40.5274 392.352 40.5274C402.038 40.5274 409.699 43.1782 415.335 48.4799C421.026 53.7816 423.872 61.1989 423.872 70.7317L423.708 75.2432C420.096 76.0589 416.649 76.5942 413.365 76.849C407.51 77.2569 399.384 77.4608 388.987 77.4608H368.466ZM368.713 71.7258C377.195 72.0826 386.552 72.261 396.785 72.261C400.889 72.261 404.856 72.0826 408.687 71.7258V67.4436C408.687 62.9576 407.729 58.7009 405.814 54.6737C404.61 52.1758 402.503 50.1112 399.494 48.4799C396.484 46.7976 393.009 45.9565 389.069 45.9565C382.94 45.9565 378.043 48.0466 374.376 52.2268C370.71 56.4069 368.822 62.9066 368.713 71.7258Z" fill="white"/>
<path d="M459.988 57.8088C462.177 55.8717 464.557 53.3228 467.129 50.1622C470.194 46.4408 473.039 43.8919 475.666 42.5155C478.292 41.1391 481.056 40.4509 483.956 40.4509C486.966 40.4509 489.264 40.7822 490.851 41.445C491.617 41.7508 492 42.2351 492 42.8978L491.918 43.6625C491.097 47.7917 490.632 53.5777 490.523 61.0204H486.829C485.57 58.4206 484.065 56.5854 482.314 55.5148C480.618 54.4443 478.566 53.909 476.158 53.909C472.93 53.909 469.92 54.9286 467.129 56.9677C464.393 59.0068 462.56 61.8616 461.63 65.532C460.699 69.2024 460.234 76.4157 460.234 87.1721C460.234 94.258 460.535 100.222 461.137 105.065C461.356 106.849 461.903 107.971 462.779 108.43C464.858 109.5 467.923 110.036 471.972 110.036H476.897V114.471C468.525 114.114 460.59 113.935 453.093 113.935C445.815 113.935 438.619 114.114 431.506 114.471V110.036L439.385 109.424C442.176 109.22 443.927 108.736 444.639 107.971C445.405 107.206 445.897 104.734 446.116 100.554C446.499 93.2129 446.691 84.4957 446.691 74.4021C446.691 62.1165 446.171 54.9031 445.131 52.762C444.42 51.3856 442.176 50.6974 438.4 50.6974H431.506V46.2624C436.814 45.7016 441.547 44.9879 445.706 44.1213C449.865 43.2037 453.558 42.0567 456.787 40.6803C457.553 40.3234 458.182 40.145 458.675 40.145C459.277 40.145 459.687 40.298 459.906 40.6038C460.125 40.9097 460.234 41.5979 460.234 42.6684L459.988 57.8088Z" fill="white"/>
<path d="M55.8336 193.232C60.8306 200.043 67.0259 207.966 74.4194 217L89.1044 235.043C91.7048 238.135 93.4385 239.899 94.3053 240.333C95.1721 240.768 96.0645 240.986 96.9823 240.986H98.9709V245.551C94.7387 245.213 91.042 245.043 87.8806 245.043C84.9742 245.043 81.9148 245.213 78.7025 245.551L51.627 210.913C46.579 204.536 41.1741 198.304 35.4123 192.217L36.1771 189.754C39.1345 189.995 41.3271 190.116 42.7548 190.116C51.2701 190.116 57.9242 188.039 62.7172 183.884C67.5613 179.729 69.9833 174.174 69.9833 167.217C69.9833 160.986 67.9437 156.13 63.8645 152.652C59.7853 149.126 53.896 147.362 46.1966 147.362C40.8427 147.362 35.4633 148.304 30.0584 150.188C29.4465 157.87 29.1406 166.082 29.1406 174.826V209.826C29.1406 226.879 29.574 236.348 30.4408 238.232C31.3076 240.068 34.1121 240.986 38.8541 240.986H44.8199V245.551C36.3556 245.213 29.3445 245.043 23.7867 245.043C19.4016 245.043 11.4727 245.213 0 245.551V240.986H5.73633C10.1214 240.986 12.7219 240.092 13.5377 238.304C14.3536 236.469 14.7615 226.928 14.7615 209.681V174.826C14.7615 159.85 14.2771 151.469 13.3083 149.681C12.3905 147.894 9.3311 147 4.13016 147H0V142.362C9.48407 142.749 16.7246 142.942 21.7216 142.942C25.0869 142.942 29.9309 142.821 36.2536 142.58C43.5961 142.338 48.8736 142.217 52.0859 142.217C60.9071 142.217 67.5867 143.111 72.1248 144.899C76.7139 146.638 80.1812 149.174 82.5267 152.507C84.9232 155.841 86.1215 159.826 86.1215 164.464C86.1215 171.275 83.521 177.29 78.3201 182.507C73.1701 187.725 65.6746 191.3 55.8336 193.232Z" fill="white"/>
<path d="M119.01 210.478C119.265 219.995 121.84 227.217 126.735 232.145C131.63 237.072 138.054 239.536 146.009 239.536C149.578 239.536 153.122 238.981 156.64 237.87C160.158 236.758 163.651 235.092 167.119 232.87L168.419 233.957L165.971 240.043C161.739 242.362 157.379 244.101 152.892 245.261C148.405 246.42 143.791 247 139.049 247C128.698 247 120.336 243.908 113.962 237.725C107.639 231.493 104.478 223.063 104.478 212.435C104.478 204.319 106.262 197.29 109.832 191.348C112.177 187.435 116.511 183.812 122.834 180.478C129.157 177.145 135.301 175.478 141.267 175.478C150.292 175.478 157.43 177.99 162.682 183.014C167.985 188.039 170.637 195.068 170.637 204.101L170.484 208.377C167.118 209.15 163.906 209.657 160.847 209.899C155.391 210.285 147.819 210.478 138.131 210.478H119.01ZM119.239 205.043C127.143 205.382 135.862 205.551 145.397 205.551C149.221 205.551 152.918 205.382 156.487 205.043V200.986C156.487 196.734 155.595 192.7 153.81 188.884C152.688 186.517 150.725 184.56 147.921 183.014C145.116 181.42 141.879 180.623 138.207 180.623C132.497 180.623 127.933 182.604 124.517 186.565C121.1 190.527 119.341 196.686 119.239 205.043Z" fill="white"/>
<path d="M186.851 223.377V228.087C186.851 231.855 187.208 234.198 187.922 235.116C189.248 236.662 191.823 238.159 195.647 239.609C199.522 241.058 203.5 241.783 207.579 241.783C212.831 241.783 217.114 240.454 220.428 237.797C223.742 235.092 225.4 231.879 225.4 228.159C225.4 225.213 224.431 222.845 222.493 221.058C220.556 219.271 216.859 217.845 211.403 216.783C201.256 214.85 194.551 213.159 191.288 211.71C188.024 210.261 185.577 208.328 183.945 205.913C182.313 203.498 181.498 200.575 181.498 197.145C181.498 190.72 183.945 185.502 188.84 181.493C193.786 177.483 200.772 175.478 209.797 175.478C216.935 175.478 224.048 176.831 231.136 179.536C230.728 182.821 230.397 188.329 230.142 196.058H225.629C225.527 191.807 225.043 189.005 224.176 187.652C223.003 185.865 220.862 184.246 217.751 182.797C214.641 181.348 211.327 180.623 207.808 180.623C203.168 180.623 199.446 181.758 196.642 184.029C193.888 186.251 192.511 189.053 192.511 192.435C192.511 195.671 193.608 198.111 195.8 199.754C197.993 201.444 204.06 203.232 214.003 205.116C221.346 206.517 226.19 207.821 228.536 209.029C230.881 210.237 232.768 212.072 234.195 214.536C235.623 217 236.337 219.826 236.337 223.014C236.337 229.536 233.38 235.164 227.465 239.899C221.601 244.633 213.749 247 203.908 247C197.636 247 190.599 246.058 182.798 244.174C181.421 243.836 180.733 243.328 180.733 242.652L180.962 241.638C181.166 240.913 181.345 239.633 181.498 237.797C181.956 233.111 182.186 229.464 182.186 226.855L182.109 223.377H186.851Z" fill="white"/>
<path d="M260.506 210.478C260.761 219.995 263.336 227.217 268.231 232.145C273.126 237.072 279.551 239.536 287.505 239.536C291.074 239.536 294.618 238.981 298.136 237.87C301.655 236.758 305.147 235.092 308.615 232.87L309.915 233.957L307.467 240.043C303.235 242.362 298.876 244.101 294.389 245.261C289.902 246.42 285.287 247 280.545 247C270.194 247 261.832 243.908 255.458 237.725C249.135 231.493 245.974 223.063 245.974 212.435C245.974 204.319 247.759 197.29 251.328 191.348C253.673 187.435 258.008 183.812 264.33 180.478C270.653 177.145 276.797 175.478 282.763 175.478C291.788 175.478 298.927 177.99 304.179 183.014C309.482 188.039 312.133 195.068 312.133 204.101L311.98 208.377C308.615 209.15 305.402 209.657 302.343 209.899C296.887 210.285 289.315 210.478 279.627 210.478H260.506ZM260.735 205.043C268.639 205.382 277.358 205.551 286.893 205.551C290.717 205.551 294.414 205.382 297.983 205.043V200.986C297.983 196.734 297.091 192.7 295.306 188.884C294.185 186.517 292.222 184.56 289.417 183.014C286.613 181.42 283.375 180.623 279.704 180.623C273.993 180.623 269.429 182.604 266.013 186.565C262.597 190.527 260.837 196.686 260.735 205.043Z" fill="white"/>
<path d="M327.659 195.116L327.736 190.261L327.659 185.261L335.996 180.768C339.769 178.739 343.058 177.338 345.863 176.565C348.718 175.792 351.752 175.406 354.964 175.406C362.001 175.406 367.661 176.903 371.944 179.899C376.278 182.894 378.878 186.71 379.745 191.348C380.357 194.826 380.74 203.449 380.893 217.217C380.994 230.213 381.3 237.386 381.81 238.739C382.32 240.092 383.595 240.768 385.635 240.768H391.6V245.551C385.788 245.213 381.734 245.043 379.439 245.043C376.584 245.043 372.76 245.213 367.967 245.551L368.043 239.101C368.043 237.024 368.018 234.923 367.967 232.797L352.134 244.246C350.707 245.261 349.304 245.961 347.928 246.348C346.551 246.783 344.639 247 342.191 247C335.614 247 330.591 245.478 327.124 242.435C323.657 239.343 321.923 235.213 321.923 230.043C321.923 225.164 323.147 220.913 325.594 217.29C328.093 213.618 331.611 210.913 336.149 209.174C340.738 207.435 351.344 205.164 367.967 202.362C367.865 196.227 366.437 191.638 363.684 188.594C360.216 184.778 355.27 182.87 348.846 182.87C346.398 182.87 344.104 183.159 341.962 183.739C339.82 184.319 337.832 185.188 335.996 186.348C334.517 189.778 333.166 193.063 331.942 196.203L327.659 195.116ZM367.967 206.638C353.792 209.536 344.792 212.266 340.968 214.826C337.143 217.338 335.231 221.251 335.231 226.565C335.231 230.14 336.328 233.014 338.52 235.188C340.713 237.314 343.543 238.377 347.01 238.377C350.834 238.377 354.48 237.362 357.947 235.333C361.465 233.304 364.805 230.285 367.967 226.275L367.814 210.188L367.967 206.638Z" fill="white"/>
<path d="M424.106 191.855C426.146 190.019 428.364 187.604 430.76 184.609C433.616 181.082 436.267 178.667 438.715 177.362C441.162 176.058 443.737 175.406 446.44 175.406C449.244 175.406 451.386 175.72 452.864 176.348C453.578 176.638 453.935 177.097 453.935 177.725L453.859 178.449C453.094 182.362 452.66 187.845 452.558 194.899H449.117C447.944 192.435 446.542 190.696 444.91 189.681C443.329 188.667 441.417 188.159 439.174 188.159C436.165 188.159 433.361 189.126 430.76 191.058C428.211 192.99 426.503 195.696 425.636 199.174C424.769 202.652 424.336 209.488 424.336 219.681C424.336 226.396 424.616 232.048 425.177 236.638C425.381 238.328 425.891 239.391 426.707 239.826C428.644 240.841 431.5 241.348 435.273 241.348H439.862V245.551C432.061 245.213 424.667 245.043 417.682 245.043C410.9 245.043 404.195 245.213 397.566 245.551V241.348L404.909 240.768C407.509 240.575 409.141 240.116 409.804 239.391C410.518 238.667 410.976 236.324 411.18 232.362C411.537 225.406 411.716 217.145 411.716 207.58C411.716 195.937 411.231 189.101 410.263 187.072C409.6 185.768 407.509 185.116 403.991 185.116H397.566V180.913C402.512 180.382 406.923 179.705 410.798 178.884C414.673 178.014 418.115 176.928 421.123 175.623C421.837 175.285 422.424 175.116 422.882 175.116C423.443 175.116 423.826 175.261 424.03 175.551C424.234 175.841 424.336 176.493 424.336 177.507L424.106 191.855Z" fill="white"/>
<path d="M518.947 235.261L521.012 237L517.876 241.638C514.409 243.425 510.84 244.754 507.168 245.623C503.497 246.541 499.749 247 495.925 247C488.43 247 482.056 245.647 476.804 242.942C471.603 240.237 467.575 236.324 464.719 231.203C461.864 226.082 460.436 219.995 460.436 212.942C460.436 206.71 461.533 201.3 463.725 196.71C465.918 192.072 468.977 188.449 472.903 185.841C476.88 183.232 481.827 180.671 487.741 178.159C491.922 176.372 496.588 175.478 501.738 175.478C505.664 175.478 509.029 175.792 511.834 176.42C514.689 177 517.749 178.063 521.012 179.609C519.737 185.985 519.049 192.362 518.947 198.739H514.128V195.116C514.128 192.024 513.644 189.85 512.675 188.594C511.757 187.29 509.616 186.01 506.251 184.754C502.885 183.498 499.214 182.87 495.237 182.87C488.353 182.87 483.05 184.874 479.328 188.884C475.606 192.845 473.745 198.787 473.745 206.71C473.745 216.903 476.498 225.068 482.005 231.203C486.951 236.758 493.325 239.536 501.126 239.536C504.185 239.536 507.194 239.174 510.151 238.449C513.109 237.725 516.041 236.662 518.947 235.261Z" fill="white"/>
<path d="M554.359 189.246L564.379 180.913C566.724 178.836 569.019 177.411 571.262 176.638C573.557 175.865 576.31 175.478 579.523 175.478C585.182 175.478 590.077 176.565 594.208 178.739C598.389 180.865 601.27 183.618 602.85 187C604.482 190.333 605.298 196.034 605.298 204.101L604.839 225.551C604.839 230.382 605.043 234.198 605.451 237C605.604 238.159 606.012 239.029 606.675 239.609C607.388 240.188 608.893 240.575 611.187 240.768L617 241.348V245.551C612.054 245.213 607.235 245.043 602.544 245.043C598.516 245.043 594.514 245.213 590.536 245.551C591.454 233.425 591.913 221.493 591.913 209.754C591.913 201.879 591.378 196.541 590.307 193.739C589.287 190.937 587.426 188.715 584.724 187.072C582.021 185.43 578.605 184.609 574.475 184.609C570.243 184.609 566.393 185.575 562.925 187.507C559.458 189.391 557.062 191.589 555.736 194.101C554.818 195.889 554.359 200.14 554.359 206.855V219.464C554.359 230.961 554.64 237.314 555.201 238.522C555.761 239.729 557.801 240.478 561.319 240.768L567.973 241.348V245.551C560.019 245.213 553.62 245.043 548.776 245.043C543.728 245.043 537.125 245.213 528.966 245.551V241.348L533.785 240.768C536.793 240.43 538.68 240.043 539.445 239.609C540.21 239.126 540.72 238.063 540.974 236.42C541.331 233.812 541.51 227.966 541.51 218.884V169.971C541.51 157.072 541.153 149.85 540.439 148.304C539.98 147.242 537.915 146.71 534.244 146.71H528.966V142.29C536.87 141.517 543.193 140.43 547.935 139.029L554.206 137C555.022 137 555.43 137.507 555.43 138.522L555.201 141.493L554.742 154.536C554.487 161.106 554.359 166.203 554.359 169.826V189.246Z" fill="white"/>
<path d="M55.8336 193.232C60.8306 200.043 67.0259 207.966 74.4194 217L89.1044 235.043C91.7048 238.135 93.4385 239.899 94.3053 240.333C95.1721 240.768 96.0645 240.986 96.9823 240.986H98.9709V245.551C94.7387 245.213 91.042 245.043 87.8806 245.043C84.9742 245.043 81.9148 245.213 78.7025 245.551L51.627 210.913C46.579 204.536 41.1741 198.304 35.4123 192.217L36.1771 189.754C39.1345 189.995 41.3271 190.116 42.7548 190.116C51.2701 190.116 57.9242 188.039 62.7172 183.884C67.5613 179.729 69.9833 174.174 69.9833 167.217C69.9833 160.986 67.9437 156.13 63.8645 152.652C59.7853 149.126 53.896 147.362 46.1966 147.362C40.8427 147.362 35.4633 148.304 30.0584 150.188C29.4465 157.87 29.1406 166.082 29.1406 174.826V209.826C29.1406 226.879 29.574 236.348 30.4408 238.232C31.3076 240.068 34.1121 240.986 38.8541 240.986H44.8199V245.551C36.3556 245.213 29.3445 245.043 23.7867 245.043C19.4016 245.043 11.4727 245.213 0 245.551V240.986H5.73633C10.1214 240.986 12.7219 240.092 13.5377 238.304C14.3536 236.469 14.7615 226.928 14.7615 209.681V174.826C14.7615 159.85 14.2771 151.469 13.3083 149.681C12.3905 147.894 9.3311 147 4.13016 147H0V142.362C9.48407 142.749 16.7246 142.942 21.7216 142.942C25.0869 142.942 29.9309 142.821 36.2536 142.58C43.5961 142.338 48.8736 142.217 52.0859 142.217C60.9071 142.217 67.5867 143.111 72.1248 144.899C76.7139 146.638 80.1812 149.174 82.5267 152.507C84.9232 155.841 86.1215 159.826 86.1215 164.464C86.1215 171.275 83.521 177.29 78.3201 182.507C73.1701 187.725 65.6746 191.3 55.8336 193.232Z" fill="white"/>
<path d="M119.01 210.478C119.265 219.995 121.84 227.217 126.735 232.145C131.63 237.072 138.054 239.536 146.009 239.536C149.578 239.536 153.122 238.981 156.64 237.87C160.158 236.758 163.651 235.092 167.119 232.87L168.419 233.957L165.971 240.043C161.739 242.362 157.379 244.101 152.892 245.261C148.405 246.42 143.791 247 139.049 247C128.698 247 120.336 243.908 113.962 237.725C107.639 231.493 104.478 223.063 104.478 212.435C104.478 204.319 106.262 197.29 109.832 191.348C112.177 187.435 116.511 183.812 122.834 180.478C129.157 177.145 135.301 175.478 141.267 175.478C150.292 175.478 157.43 177.99 162.682 183.014C167.985 188.039 170.637 195.068 170.637 204.101L170.484 208.377C167.118 209.15 163.906 209.657 160.847 209.899C155.391 210.285 147.819 210.478 138.131 210.478H119.01ZM119.239 205.043C127.143 205.382 135.862 205.551 145.397 205.551C149.221 205.551 152.918 205.382 156.487 205.043V200.986C156.487 196.734 155.595 192.7 153.81 188.884C152.688 186.517 150.725 184.56 147.921 183.014C145.116 181.42 141.879 180.623 138.207 180.623C132.497 180.623 127.933 182.604 124.517 186.565C121.1 190.527 119.341 196.686 119.239 205.043Z" fill="white"/>
<path d="M186.851 223.377V228.087C186.851 231.855 187.208 234.198 187.922 235.116C189.248 236.662 191.823 238.159 195.647 239.609C199.522 241.058 203.5 241.783 207.579 241.783C212.831 241.783 217.114 240.454 220.428 237.797C223.742 235.092 225.4 231.879 225.4 228.159C225.4 225.213 224.431 222.845 222.493 221.058C220.556 219.271 216.859 217.845 211.403 216.783C201.256 214.85 194.551 213.159 191.288 211.71C188.024 210.261 185.577 208.328 183.945 205.913C182.313 203.498 181.498 200.575 181.498 197.145C181.498 190.72 183.945 185.502 188.84 181.493C193.786 177.483 200.772 175.478 209.797 175.478C216.935 175.478 224.048 176.831 231.136 179.536C230.728 182.821 230.397 188.329 230.142 196.058H225.629C225.527 191.807 225.043 189.005 224.176 187.652C223.003 185.865 220.862 184.246 217.751 182.797C214.641 181.348 211.327 180.623 207.808 180.623C203.168 180.623 199.446 181.758 196.642 184.029C193.888 186.251 192.511 189.053 192.511 192.435C192.511 195.671 193.608 198.111 195.8 199.754C197.993 201.444 204.06 203.232 214.003 205.116C221.346 206.517 226.19 207.821 228.536 209.029C230.881 210.237 232.768 212.072 234.195 214.536C235.623 217 236.337 219.826 236.337 223.014C236.337 229.536 233.38 235.164 227.465 239.899C221.601 244.633 213.749 247 203.908 247C197.636 247 190.599 246.058 182.798 244.174C181.421 243.836 180.733 243.328 180.733 242.652L180.962 241.638C181.166 240.913 181.345 239.633 181.498 237.797C181.956 233.111 182.186 229.464 182.186 226.855L182.109 223.377H186.851Z" fill="white"/>
<path d="M260.506 210.478C260.761 219.995 263.336 227.217 268.231 232.145C273.126 237.072 279.551 239.536 287.505 239.536C291.074 239.536 294.618 238.981 298.136 237.87C301.655 236.758 305.147 235.092 308.615 232.87L309.915 233.957L307.467 240.043C303.235 242.362 298.876 244.101 294.389 245.261C289.902 246.42 285.287 247 280.545 247C270.194 247 261.832 243.908 255.458 237.725C249.135 231.493 245.974 223.063 245.974 212.435C245.974 204.319 247.759 197.29 251.328 191.348C253.673 187.435 258.008 183.812 264.33 180.478C270.653 177.145 276.797 175.478 282.763 175.478C291.788 175.478 298.927 177.99 304.179 183.014C309.482 188.039 312.133 195.068 312.133 204.101L311.98 208.377C308.615 209.15 305.402 209.657 302.343 209.899C296.887 210.285 289.315 210.478 279.627 210.478H260.506ZM260.735 205.043C268.639 205.382 277.358 205.551 286.893 205.551C290.717 205.551 294.414 205.382 297.983 205.043V200.986C297.983 196.734 297.091 192.7 295.306 188.884C294.185 186.517 292.222 184.56 289.417 183.014C286.613 181.42 283.375 180.623 279.704 180.623C273.993 180.623 269.429 182.604 266.013 186.565C262.597 190.527 260.837 196.686 260.735 205.043Z" fill="white"/>
<path d="M327.659 195.116L327.736 190.261L327.659 185.261L335.996 180.768C339.769 178.739 343.058 177.338 345.863 176.565C348.718 175.792 351.752 175.406 354.964 175.406C362.001 175.406 367.661 176.903 371.944 179.899C376.278 182.894 378.878 186.71 379.745 191.348C380.357 194.826 380.74 203.449 380.893 217.217C380.994 230.213 381.3 237.386 381.81 238.739C382.32 240.092 383.595 240.768 385.635 240.768H391.6V245.551C385.788 245.213 381.734 245.043 379.439 245.043C376.584 245.043 372.76 245.213 367.967 245.551L368.043 239.101C368.043 237.024 368.018 234.923 367.967 232.797L352.134 244.246C350.707 245.261 349.304 245.961 347.928 246.348C346.551 246.783 344.639 247 342.191 247C335.614 247 330.591 245.478 327.124 242.435C323.657 239.343 321.923 235.213 321.923 230.043C321.923 225.164 323.147 220.913 325.594 217.29C328.093 213.618 331.611 210.913 336.149 209.174C340.738 207.435 351.344 205.164 367.967 202.362C367.865 196.227 366.437 191.638 363.684 188.594C360.216 184.778 355.27 182.87 348.846 182.87C346.398 182.87 344.104 183.159 341.962 183.739C339.82 184.319 337.832 185.188 335.996 186.348C334.517 189.778 333.166 193.063 331.942 196.203L327.659 195.116ZM367.967 206.638C353.792 209.536 344.792 212.266 340.968 214.826C337.143 217.338 335.231 221.251 335.231 226.565C335.231 230.14 336.328 233.014 338.52 235.188C340.713 237.314 343.543 238.377 347.01 238.377C350.834 238.377 354.48 237.362 357.947 235.333C361.465 233.304 364.805 230.285 367.967 226.275L367.814 210.188L367.967 206.638Z" fill="white"/>
<path d="M424.106 191.855C426.146 190.019 428.364 187.604 430.76 184.609C433.616 181.082 436.267 178.667 438.715 177.362C441.162 176.058 443.737 175.406 446.44 175.406C449.244 175.406 451.386 175.72 452.864 176.348C453.578 176.638 453.935 177.097 453.935 177.725L453.859 178.449C453.094 182.362 452.66 187.845 452.558 194.899H449.117C447.944 192.435 446.542 190.696 444.91 189.681C443.329 188.667 441.417 188.159 439.174 188.159C436.165 188.159 433.361 189.126 430.76 191.058C428.211 192.99 426.503 195.696 425.636 199.174C424.769 202.652 424.336 209.488 424.336 219.681C424.336 226.396 424.616 232.048 425.177 236.638C425.381 238.328 425.891 239.391 426.707 239.826C428.644 240.841 431.5 241.348 435.273 241.348H439.862V245.551C432.061 245.213 424.667 245.043 417.682 245.043C410.9 245.043 404.195 245.213 397.566 245.551V241.348L404.909 240.768C407.509 240.575 409.141 240.116 409.804 239.391C410.518 238.667 410.976 236.324 411.18 232.362C411.537 225.406 411.716 217.145 411.716 207.58C411.716 195.937 411.231 189.101 410.263 187.072C409.6 185.768 407.509 185.116 403.991 185.116H397.566V180.913C402.512 180.382 406.923 179.705 410.798 178.884C414.673 178.014 418.115 176.928 421.123 175.623C421.837 175.285 422.424 175.116 422.882 175.116C423.443 175.116 423.826 175.261 424.03 175.551C424.234 175.841 424.336 176.493 424.336 177.507L424.106 191.855Z" fill="white"/>
<path d="M518.947 235.261L521.012 237L517.876 241.638C514.409 243.425 510.84 244.754 507.168 245.623C503.497 246.541 499.749 247 495.925 247C488.43 247 482.056 245.647 476.804 242.942C471.603 240.237 467.575 236.324 464.719 231.203C461.864 226.082 460.436 219.995 460.436 212.942C460.436 206.71 461.533 201.3 463.725 196.71C465.918 192.072 468.977 188.449 472.903 185.841C476.88 183.232 481.827 180.671 487.741 178.159C491.922 176.372 496.588 175.478 501.738 175.478C505.664 175.478 509.029 175.792 511.834 176.42C514.689 177 517.749 178.063 521.012 179.609C519.737 185.985 519.049 192.362 518.947 198.739H514.128V195.116C514.128 192.024 513.644 189.85 512.675 188.594C511.757 187.29 509.616 186.01 506.251 184.754C502.885 183.498 499.214 182.87 495.237 182.87C488.353 182.87 483.05 184.874 479.328 188.884C475.606 192.845 473.745 198.787 473.745 206.71C473.745 216.903 476.498 225.068 482.005 231.203C486.951 236.758 493.325 239.536 501.126 239.536C504.185 239.536 507.194 239.174 510.151 238.449C513.109 237.725 516.041 236.662 518.947 235.261Z" fill="white"/>
<path d="M554.359 189.246L564.379 180.913C566.724 178.836 569.019 177.411 571.262 176.638C573.557 175.865 576.31 175.478 579.523 175.478C585.182 175.478 590.077 176.565 594.208 178.739C598.389 180.865 601.27 183.618 602.85 187C604.482 190.333 605.298 196.034 605.298 204.101L604.839 225.551C604.839 230.382 605.043 234.198 605.451 237C605.604 238.159 606.012 239.029 606.675 239.609C607.388 240.188 608.893 240.575 611.187 240.768L617 241.348V245.551C612.054 245.213 607.235 245.043 602.544 245.043C598.516 245.043 594.514 245.213 590.536 245.551C591.454 233.425 591.913 221.493 591.913 209.754C591.913 201.879 591.378 196.541 590.307 193.739C589.287 190.937 587.426 188.715 584.724 187.072C582.021 185.43 578.605 184.609 574.475 184.609C570.243 184.609 566.393 185.575 562.925 187.507C559.458 189.391 557.062 191.589 555.736 194.101C554.818 195.889 554.359 200.14 554.359 206.855V219.464C554.359 230.961 554.64 237.314 555.201 238.522C555.761 239.729 557.801 240.478 561.319 240.768L567.973 241.348V245.551C560.019 245.213 553.62 245.043 548.776 245.043C543.728 245.043 537.125 245.213 528.966 245.551V241.348L533.785 240.768C536.793 240.43 538.68 240.043 539.445 239.609C540.21 239.126 540.72 238.063 540.974 236.42C541.331 233.812 541.51 227.966 541.51 218.884V169.971C541.51 157.072 541.153 149.85 540.439 148.304C539.98 147.242 537.915 146.71 534.244 146.71H528.966V142.29C536.87 141.517 543.193 140.43 547.935 139.029L554.206 137C555.022 137 555.43 137.507 555.43 138.522L555.201 141.493L554.742 154.536C554.487 161.106 554.359 166.203 554.359 169.826V189.246Z" fill="white"/>
</svg>
