<svg width="24" height="25" viewBox="0 0 24 25" fill="none" xmlns="http://www.w3.org/2000/svg">
<path d="M14.7082 3.68018C15.3228 3.37464 16.0452 3.28373 16.7601 3.47532C18.3161 3.89223 19.2395 5.49155 18.8225 7.04749L16.45 15.9018C16.0331 17.4578 14.4338 18.3811 12.8779 17.9642C11.3219 17.5473 10.3986 15.948 10.8155 14.392L11.7645 10.8503C11.8717 10.4502 11.6342 10.039 11.2341 9.93174C10.834 9.82454 10.4228 10.062 10.3156 10.4621L9.36658 14.0038C8.73525 16.3599 10.1335 18.7818 12.4896 19.4131C14.8458 20.0444 17.2676 18.6462 17.8989 16.29L20.2714 7.43572C20.9028 5.07958 19.5045 2.65775 17.1484 2.02643C16.0669 1.73665 14.9698 1.87499 14.0405 2.33698C13.4706 2.62027 12.9626 3.0257 12.558 3.53004C12.2989 3.85315 12.3507 4.32519 12.6738 4.58436C12.9969 4.84353 13.469 4.7917 13.7281 4.46858C13.9947 4.13625 14.3305 3.86792 14.7082 3.68018Z" fill="black"/>
<path d="M8.22274 9.9013C8.63966 8.34536 10.239 7.42199 11.7949 7.83891C13.3509 8.25582 14.2742 9.85513 13.8573 11.4111L12.9083 14.9528C12.8011 15.3529 13.0385 15.7642 13.4386 15.8714C13.8387 15.9786 14.25 15.7411 14.3572 15.341L15.3062 11.7993C15.9375 9.44316 14.5393 7.02134 12.1831 6.39002C9.827 5.75869 7.40518 7.15693 6.77385 9.51307L4.40135 18.3674C3.77002 20.7235 5.16826 23.1454 7.5244 23.7767C8.60586 24.0665 9.70295 23.9281 10.6323 23.4661C11.2022 23.1828 11.7102 22.7774 12.1147 22.2731C12.3739 21.95 12.3221 21.4779 11.999 21.2187C11.6759 20.9596 11.2038 21.0114 10.9446 21.3345C10.6781 21.6669 10.3423 21.9352 9.96461 22.1229C9.34997 22.4285 8.62762 22.5194 7.91263 22.3278C6.35669 21.9109 5.43332 20.3116 5.85023 18.7556L8.22274 9.9013Z" fill="black"/>
</svg>
